<?xml version="1.0" encoding="UTF-8"?>
<svg version="1.1" xmlns="http://www.w3.org/2000/svg" width="500" height="500">
<path d="M0 0 C2.57346089 0.00028244 5.14692185 0.00012302 7.72038269 -0.0004425 C13.23626571 -0.0009639 18.7521368 0.00214249 24.26801682 0.00779533 C32.24280597 0.01596277 40.21758941 0.0185309 48.19238229 0.01978333 C61.13460578 0.02196565 74.07682292 0.02860341 87.01904297 0.03808594 C99.58251921 0.04728133 112.14599372 0.05435173 124.70947266 0.05859375 C125.48540037 0.05885647 126.26132809 0.0591192 127.06076877 0.05938988 C130.95382247 0.06069503 134.84687619 0.06195871 138.73992991 0.06320179 C170.97717794 0.07354886 203.21441816 0.09114475 235.45166016 0.11352539 C235.45166016 0.77352539 235.45166016 1.43352539 235.45166016 2.11352539 C234.68982422 2.41645508 233.92798828 2.71938477 233.14306641 3.03149414 C222.22243762 7.45171196 222.22243762 7.45171196 212.32666016 13.76196289 C210.45166016 15.11352539 210.45166016 15.11352539 208.45166016 15.11352539 C208.45166016 15.77352539 208.45166016 16.43352539 208.45166016 17.11352539 C206.98291016 18.34008789 206.98291016 18.34008789 204.95166016 19.73852539 C197.83326316 24.94954106 192.40435735 31.08089962 187.07666016 38.05102539 C175.80509186 52.70639783 161.05349025 63.29782218 142.45166016 66.11352539 C137.21263426 66.41494191 131.97898022 66.41499337 126.73339844 66.41650391 C125.15387543 66.42417654 123.57435648 66.43272507 121.99484253 66.44207764 C118.60807991 66.46027896 115.22137164 66.47236681 111.83456802 66.47961617 C106.47077791 66.49116115 101.10710751 66.51664411 95.74337769 66.54393005 C87.25342777 66.58549964 78.76347194 66.6179473 70.27346885 66.64640421 C55.08358015 66.69741234 39.89374314 66.75983287 24.70393932 66.83174461 C19.38067555 66.85653237 14.05742703 66.87602425 8.73412728 66.89112675 C5.41215001 66.90139489 2.09019672 66.91554134 -1.23176193 66.93060303 C-2.76229786 66.93671226 -4.29284135 66.94119721 -5.82338715 66.94386101 C-44.6504448 67.01524304 -77.42783872 81.07458433 -104.95458984 108.51196289 C-128.0342569 132.97315931 -139.84973738 166.74648836 -139.51855469 200.11450195 C-138.99441074 213.56381264 -136.67259267 226.31951817 -132.54833984 239.11352539 C-132.32130371 239.82621582 -132.09426758 240.53890625 -131.86035156 241.27319336 C-127.39142289 254.97053868 -120.16956654 266.34605521 -111.33349609 277.65258789 C-109.54833984 280.11352539 -109.54833984 280.11352539 -108.54833984 283.11352539 C-107.88833984 283.11352539 -107.22833984 283.11352539 -106.54833984 283.11352539 C-106.54833984 283.77352539 -106.54833984 284.43352539 -106.54833984 285.11352539 C-105.88833984 285.11352539 -105.22833984 285.11352539 -104.54833984 285.11352539 C-102.89208984 286.82836914 -102.89208984 286.82836914 -101.04833984 289.05102539 C-98.65906986 292.03397718 -98.65906986 292.03397718 -95.54833984 294.11352539 C-95.54833984 294.77352539 -95.54833984 295.43352539 -95.54833984 296.11352539 C-94.88833984 296.11352539 -94.22833984 296.11352539 -93.54833984 296.11352539 C-93.54833984 296.77352539 -93.54833984 297.43352539 -93.54833984 298.11352539 C-92.74009766 298.4809082 -92.74009766 298.4809082 -91.91552734 298.85571289 C-88.976838 300.41719469 -86.37970924 302.3015478 -83.67333984 304.23852539 C-72.2574596 312.23547757 -60.64743379 318.35297504 -47.54833984 323.11352539 C-46.65630859 323.45383789 -45.76427734 323.79415039 -44.84521484 324.14477539 C-11.3074374 333.99947777 23.52321873 329.48797439 54.38916016 313.73852539 C59.82012615 310.67162694 64.87506793 307.12177342 69.87329102 303.40112305 C72.40260379 301.5213228 74.43749871 300.11824587 77.45166016 299.11352539 C77.45166016 298.45352539 77.45166016 297.79352539 77.45166016 297.11352539 C79.09619141 295.52758789 79.09619141 295.52758789 81.26416016 293.73852539 C84.23596595 291.2809665 86.07396993 289.28377902 88.45166016 286.11352539 C88.45166016 273.90352539 88.45166016 261.69352539 88.45166016 249.11352539 C56.11166016 248.78352539 23.77166016 248.45352539 -9.54833984 248.11352539 C-12.4758981 230.54817585 -9.19267964 216.25059121 0.23291016 201.28540039 C7.53448851 191.19932182 19.33529299 184.65012731 31.45166016 182.11352539 C33.17712832 182.02402037 34.90568073 181.98725804 36.63346863 181.98654175 C37.68087723 181.98372192 38.72828583 181.9809021 39.80743408 181.97799683 C41.52274323 181.98103317 41.52274323 181.98103317 43.27270508 181.98413086 C44.48112564 181.98237854 45.6895462 181.98062622 46.93458557 181.9788208 C50.24424966 181.97517455 53.55385122 181.97602773 56.8635118 181.97919989 C60.32504978 181.98173168 63.78658509 181.97938382 67.24812317 181.97781372 C73.05775431 181.97599516 78.86737274 181.9783909 84.67700195 181.9831543 C91.40150061 181.988604 98.12596898 181.98682788 104.85046691 181.98132789 C110.62036944 181.976797 116.39026283 181.97614586 122.16016656 181.97876656 C125.60808167 181.98032848 129.05598251 181.98052526 132.50389671 181.97723007 C136.34220951 181.9738178 140.18048805 181.97854064 144.01879883 181.98413086 C145.74321701 181.98109451 145.74321701 181.98109451 147.50247192 181.97799683 C149.06089561 181.98222656 149.06089561 181.98222656 150.65080261 181.98654175 C152.01325497 181.98710729 152.01325497 181.98710729 153.40323162 181.98768425 C155.45166016 182.11352539 155.45166016 182.11352539 156.45166016 183.11352539 C156.57598823 184.73422703 156.63126192 186.36026894 156.65939331 187.98548889 C156.67955505 189.04075272 156.6997168 190.09601654 156.7204895 191.18325806 C156.74573196 192.93550186 156.74573196 192.93550186 156.77148438 194.72314453 C156.79251221 195.94604691 156.81354004 197.16894928 156.83520508 198.4289093 C157.01873657 209.76319753 157.12600799 221.0985991 157.20734978 232.43404484 C157.26868349 240.80166426 157.37175425 249.16655904 157.53004444 257.53291613 C157.63774185 263.42606547 157.69450545 269.31847477 157.71548092 275.21256155 C157.72945418 278.72570226 157.76509658 282.23528647 157.85671616 285.74733162 C158.48847352 311.00501019 158.48847352 311.00501019 149.99511719 320.77148438 C148.33235402 322.51279918 146.65190587 324.17487928 144.85136604 325.77277279 C143.19689216 327.26042035 143.19689216 327.26042035 141.45166016 330.11352539 C140.79166016 330.11352539 140.13166016 330.11352539 139.45166016 330.11352539 C139.21447266 330.67555664 138.97728516 331.23758789 138.73291016 331.81665039 C137.16218319 334.63246581 135.23694551 336.59307955 132.95166016 338.86352539 C132.15759766 339.66274414 131.36353516 340.46196289 130.54541016 341.28540039 C128.45166016 343.11352539 128.45166016 343.11352539 126.45166016 343.11352539 C126.45166016 343.77352539 126.45166016 344.43352539 126.45166016 345.11352539 C125.79166016 345.11352539 125.13166016 345.11352539 124.45166016 345.11352539 C124.45166016 345.77352539 124.45166016 346.43352539 124.45166016 347.11352539 C122.63393758 348.70748111 120.81970844 350.16637511 118.88916016 351.61352539 C118.30706787 352.05422363 117.72497559 352.49492187 117.12524414 352.94897461 C73.32995315 385.72998556 20.93113043 402.09753762 -33.82958984 394.85961914 C-62.17604319 390.60645811 -89.98045258 381.3895961 -113.78515625 365.28540039 C-115.67923778 364.02652593 -117.5987631 362.81647656 -119.52880859 361.61352539 C-120.18018799 361.20545654 -120.83156738 360.7973877 -121.50268555 360.37695312 C-122.76013312 359.59070873 -124.02029961 358.8087921 -125.28344727 358.03173828 C-126.73974773 357.11171559 -128.14964822 356.11896785 -129.54833984 355.11352539 C-129.54833984 354.45352539 -129.54833984 353.79352539 -129.54833984 353.11352539 C-130.20833984 353.11352539 -130.86833984 353.11352539 -131.54833984 353.11352539 C-131.54833984 352.45352539 -131.54833984 351.79352539 -131.54833984 351.11352539 C-132.20833984 350.92790039 -132.86833984 350.74227539 -133.54833984 350.55102539 C-137.81739253 348.50543765 -141.2899769 345.54167896 -144.54833984 342.11352539 C-144.54833984 341.45352539 -144.54833984 340.79352539 -144.54833984 340.11352539 C-145.20833984 340.11352539 -145.86833984 340.11352539 -146.54833984 340.11352539 C-146.54833984 339.45352539 -146.54833984 338.79352539 -146.54833984 338.11352539 C-147.11037109 337.88665039 -147.67240234 337.65977539 -148.25146484 337.42602539 C-158.73690713 331.43434409 -168.66376565 316.45611034 -174.54833984 306.11352539 C-174.54833984 305.45352539 -174.54833984 304.79352539 -174.54833984 304.11352539 C-175.20833984 304.11352539 -175.86833984 304.11352539 -176.54833984 304.11352539 C-188.36289807 283.42492121 -197.95788575 263.23452079 -202.79052734 239.75805664 C-203.29040021 237.3540289 -203.81594499 234.95517739 -204.36865234 232.56274414 C-210.34590554 206.47754695 -208.14840734 179.08215066 -202.54833984 153.11352539 C-202.4067041 152.4511084 -202.26506836 151.78869141 -202.11914062 151.10620117 C-199.03216352 136.99479313 -193.59692656 124.15934733 -187.48583984 111.11352539 C-187.07446777 110.22898682 -186.6630957 109.34444824 -186.23925781 108.43310547 C-183.75827993 103.23352517 -180.9999134 98.72342364 -177.54833984 94.11352539 C-176.95021484 93.04102539 -176.35208984 91.96852539 -175.73583984 90.86352539 C-167.08670253 75.36427132 -154.17306634 60.44405395 -140.54833984 49.11352539 C-139.57123047 48.28336914 -138.59412109 47.45321289 -137.58740234 46.59790039 C-124.00143491 35.11352539 -124.00143491 35.11352539 -120.54833984 35.11352539 C-120.54833984 34.45352539 -120.54833984 33.79352539 -120.54833984 33.11352539 C-115.90168088 30.41095195 -111.23405465 27.74781007 -106.54833984 25.11352539 C-105.87464355 24.73421875 -105.20094727 24.35491211 -104.50683594 23.96411133 C-88.21558637 14.86533734 -71.90457204 8.80081639 -53.72802734 4.62915039 C-50.85519818 3.9495564 -48.01836637 3.15044762 -45.17333984 2.36352539 C-30.59455941 -1.17603269 -14.89014113 -0.022955 0 0 Z " fill="#FAFAF9" transform="translate(211.54833984375,57.886474609375)"/>
<path d="M0 0 C0.11214844 1.52753906 0.11214844 1.52753906 0.2265625 3.0859375 C1.95609682 22.94592621 8.23854754 42.74160699 24 56 C24.969375 56.763125 25.93875 57.52625 26.9375 58.3125 C27.618125 58.869375 28.29875 59.42625 29 60 C29 60.66 29 61.32 29 62 C26.36129038 63.31935481 24.39207614 63.12891383 21.43591309 63.13371277 C20.25280548 63.13797775 19.06969788 63.14224274 17.85073853 63.14663696 C16.54583466 63.14618378 15.24093079 63.14573059 13.89648438 63.14526367 C12.51341664 63.14825476 11.13034973 63.15165717 9.74728394 63.15544128 C5.98238374 63.16429608 2.21750626 63.16662017 -1.54740334 63.16725707 C-3.90167604 63.16796737 -6.25594296 63.17010142 -8.61021423 63.17275429 C-16.83031582 63.18201643 -25.05040118 63.18608857 -33.27050781 63.18530273 C-40.91956952 63.18470346 -48.56856036 63.19522341 -56.21760416 63.2110464 C-62.79099816 63.22415705 -69.36436913 63.22948507 -75.93777609 63.22884732 C-79.86054566 63.22859314 -83.78325242 63.23139975 -87.70600891 63.24202538 C-91.40288011 63.25176438 -95.09962928 63.2517461 -98.79650497 63.24450874 C-100.78651272 63.24297749 -102.7765206 63.25127125 -104.76651001 63.25994873 C-120.07687332 63.20668428 -133.97581184 59.72115428 -145.33203125 48.80078125 C-153.20210642 40.30404904 -157.44709413 30.8923869 -160.3125 19.75 C-160.56990967 18.75806641 -160.56990967 18.75806641 -160.83251953 17.74609375 C-162.28501583 11.6998318 -163.04845676 6.55473072 -160 1 C-159.23154912 0.99576806 -158.46309824 0.99153612 -157.67136097 0.98717594 C-138.97632157 0.88388725 -120.28132025 0.77525212 -101.58634663 0.66066074 C-92.5456146 0.60537435 -83.50487862 0.55189989 -74.46411133 0.50268555 C-66.58451192 0.45978755 -58.70494104 0.41349541 -50.82538575 0.36312145 C-46.65294592 0.33656576 -42.48051159 0.31171385 -38.30803871 0.29092598 C-34.38057661 0.27130517 -30.45316856 0.24714525 -26.52575493 0.21950912 C-25.08462635 0.21016748 -23.64348594 0.20248191 -22.20233917 0.19658089 C-20.23348635 0.18827059 -18.26466445 0.17340546 -16.29585266 0.15821838 C-15.19431005 0.15176583 -14.09276743 0.14531328 -12.95784473 0.1386652 C-1.54200285 -0.39651502 -1.54200285 -0.39651502 0 0 Z " fill="#6C8FE4" transform="translate(363,131)"/>
<path d="M0 0 C4.96139932 1.4884198 8.64309067 4.02667795 12.75 7.125 C13.5853125 7.75148438 14.420625 8.37796875 15.28125 9.0234375 C25.41995938 17.65417428 34.13860518 34.54095032 35.234375 47.84765625 C36.40126492 68.17510678 33.53798477 84.08141497 21.75 101.125 C21.09 102.115 20.43 103.105 19.75 104.125 C19.09 104.125 18.43 104.125 17.75 104.125 C17.75 104.785 17.75 105.445 17.75 106.125 C17.09 106.125 16.43 106.125 15.75 106.125 C15.75 106.785 15.75 107.445 15.75 108.125 C6.47538604 115.79903046 -3.739224 119.55708295 -15.65625 119.4765625 C-23.80081829 118.67981125 -31.84059247 115.19290362 -38.25 110.125 C-38.87132812 109.64546875 -39.49265625 109.1659375 -40.1328125 108.671875 C-51.48389904 99.43562967 -59.64736516 84.74102978 -61.25 70.125 C-61.35231934 69.46951172 -61.45463867 68.81402344 -61.56005859 68.13867188 C-62.33458227 62.80846705 -63.08826324 57.29649961 -61.25 52.125 C-57.40952064 47.53448838 -51.7975544 45.04693961 -46.25 43.125 C-45.26 43.455 -44.27 43.785 -43.25 44.125 C-43.27094727 44.82471924 -43.29189453 45.52443848 -43.31347656 46.24536133 C-43.39762934 49.47592264 -43.44897071 52.70625226 -43.5 55.9375 C-43.53351563 57.03771484 -43.56703125 58.13792969 -43.6015625 59.27148438 C-43.70487797 68.02747021 -42.20120784 75.277531 -37.61425781 82.81176758 C-36.25 85.125 -36.25 85.125 -36.25 87.125 C-35.59 87.125 -34.93 87.125 -34.25 87.125 C-33.2909375 88.4553125 -33.2909375 88.4553125 -32.3125 89.8125 C-28.11300538 94.9972133 -21.92885945 97.53658715 -15.44140625 98.57421875 C-8.82203666 98.84650487 -3.03903509 97.35433114 2.75 94.125 C3.7559135 93.13094868 4.75724085 92.13218879 5.75 91.125 C6.41 91.125 7.07 91.125 7.75 91.125 C8.02972656 90.53847656 8.30945313 89.95195312 8.59765625 89.34765625 C9.66845581 87.28228354 10.86419666 85.47118986 12.1875 83.5625 C19.40037112 71.88959911 19.44677161 56.69717497 16.625 43.5625 C15.23506904 38.75120053 13.04620977 34.9609817 10.0546875 30.96484375 C8.75 29.125 8.75 29.125 7.75 26.125 C5.88356974 25.04572098 5.88356974 25.04572098 3.75 24.125 C2.58046672 23.29569459 1.4139009 22.46219188 0.25 21.625 C-4.84926815 18.35103806 -10.32354649 17.78678731 -16.25 17.125 C-15.32925156 10.15881115 -10.46313362 6.39346196 -5.75 1.5625 C-3.25 0.125 -3.25 0.125 0 0 Z " fill="#9680E0" transform="translate(430.25,74.875)"/>
<path d="M0 0 C6.61499023 6.23797006 8.33157057 14.60042181 8.8125 23.4375 C8.26561625 36.82733113 2.30099795 48.55086803 -4.75 59.625 C-5.40871094 60.70523438 -6.06742187 61.78546875 -6.74609375 62.8984375 C-8.67285008 65.52002798 -9.74155555 66.55055555 -12.75 67.625 C-12.89695312 66.52285156 -13.04390625 65.42070312 -13.1953125 64.28515625 C-16.1840469 43.46811223 -22.36028394 25.75492187 -38.75 11.625 C-41.16541223 9.96351082 -43.57986026 8.4164629 -46.1328125 6.9765625 C-46.66648437 6.53054687 -47.20015625 6.08453125 -47.75 5.625 C-47.75 4.305 -47.75 2.985 -47.75 1.625 C-44.285 1.13 -44.285 1.13 -40.75 0.625 C-40.75 -0.035 -40.75 -0.695 -40.75 -1.375 C-26.54048012 -6.81102629 -12.84200146 -9.9138578 0 0 Z " fill="#F2F3F0" transform="translate(484.75,66.375)"/>
<path d="M0 0 C1.13566406 -0.00515625 2.27132813 -0.0103125 3.44140625 -0.015625 C6.4375 0.25 6.4375 0.25 9.4375 2.25 C7.5625 7 7.5625 7 6.4375 9.25 C6.1507351 12.54779631 6.13300831 14.64101662 7.625 17.625 C9.34883964 19.44531074 9.34883964 19.44531074 11.875 19.75 C15.14544173 19.11186503 16.23990256 17.67493511 18.4375 15.25 C19.0975 15.25 19.7575 15.25 20.4375 15.25 C24.46382032 23.97369404 24.77616789 32.21312574 21.5625 41.3125 C20.38652588 44.27856805 19.21892251 46.57786623 17.4375 49.25 C16.7775 49.25 16.1175 49.25 15.4375 49.25 C15.23125 49.8275 15.025 50.405 14.8125 51 C12.54745741 54.70643333 9.54829235 56.66278709 5.359375 57.828125 C-0.45132685 58.76271341 -5.2907996 57.8436766 -10.5625 55.25 C-13.125 53.1875 -13.125 53.1875 -14.5625 51.25 C-14.5625 50.59 -14.5625 49.93 -14.5625 49.25 C-15.2225 49.25 -15.8825 49.25 -16.5625 49.25 C-22.08095739 37.74007459 -23.9171808 26.60326 -20 14.1875 C-17.587339 8.48640781 -13.93208069 4.42603591 -8.75390625 1.08203125 C-5.7728744 -0.04980437 -3.18029128 -0.01447232 0 0 Z " fill="#997FE3" transform="translate(417.5625,105.75)"/>
<path d="M0 0 C47.52 0 95.04 0 144 0 C144 0.33 144 0.66 144 1 C124.53 1.33 105.06 1.66 85 2 C85.99 2.99 85.99 2.99 87 4 C85.02422974 4.03758423 85.02422974 4.03758423 83.00854492 4.07592773 C78.12758438 4.17000882 73.24676592 4.27022792 68.3659668 4.37231445 C66.2523938 4.41566064 64.13878586 4.45733594 62.02514648 4.49731445 C58.98931336 4.55502449 55.95365611 4.61871701 52.91796875 4.68359375 C51.97100632 4.70030624 51.02404388 4.71701874 50.04838562 4.73423767 C49.16769913 4.75418289 48.28701263 4.77412811 47.37963867 4.79467773 C46.60464523 4.81022202 45.82965179 4.8257663 45.03117371 4.84178162 C42.79667507 4.93355377 42.79667507 4.93355377 40 6 C40 5.34 40 4.68 40 4 C35.03360043 4.11794962 30.06741349 4.24217518 25.10131836 4.37231445 C23.41060701 4.41572439 21.71985009 4.45739489 20.02905273 4.49731445 C17.60386394 4.55487094 15.17890585 4.61860649 12.75390625 4.68359375 C11.61327477 4.70866249 11.61327477 4.70866249 10.44960022 4.73423767 C6.92917969 4.52091268 6.92917969 4.52091268 4 6 C2.46876426 13.14576679 3.3321791 18.3240654 6 25 C6.28875 26.134375 6.5775 27.26875 6.875 28.4375 C7.78535945 31.23579746 7.78535945 31.23579746 10.625 32.375 C11.40875 32.58125 12.1925 32.7875 13 33 C12.505 35.475 12.505 35.475 12 38 C12.66 38.33 13.32 38.66 14 39 C14 40.65 14 42.3 14 44 C15.36125 44.1546875 15.36125 44.1546875 16.75 44.3125 C20.03071844 45.00649813 21.60889095 45.70085668 24 48 C24 48.66 24 49.32 24 50 C28.92772031 51.76892524 33.88634986 52.9318153 39 54 C39 55.65 39 57.3 39 59 C45.88702108 60.27022282 52.75225841 60.17423374 59.73803711 60.20532227 C61.1282174 60.21491333 62.51839484 60.22492411 63.90856934 60.23532104 C67.66628117 60.26224323 71.42400541 60.28332106 75.1817596 60.30332303 C79.11489388 60.3252613 83.04799051 60.35261146 86.98109436 60.37937927 C94.42173532 60.42920051 101.8623973 60.47417834 109.30307919 60.51740164 C117.77710756 60.5668646 126.25109814 60.621749 134.72508991 60.67708123 C152.15002496 60.79073893 169.57499516 60.89761297 187 61 C187 61.33 187 61.66 187 62 C168.65821674 62.04679503 150.31644904 62.08202555 131.97461891 62.10362434 C123.45750554 62.11392119 114.94042935 62.127951 106.42333984 62.15087891 C98.99674783 62.17086162 91.57018274 62.183728 84.14356458 62.18817699 C80.21404966 62.19077612 76.28461176 62.19685182 72.35512161 62.21146011 C68.65007989 62.22512128 64.9451463 62.22920554 61.24008179 62.22621536 C59.24527603 62.22702056 57.25048181 62.23773726 55.25570679 62.24884033 C39.93529451 62.21398814 26.03141015 58.7280991 14.66796875 47.80078125 C6.79789358 39.30404904 2.55290587 29.8923869 -0.3125 18.75 C-0.56990967 17.75806641 -0.56990967 17.75806641 -0.83251953 16.74609375 C-2.33288458 10.50057001 -2.91010955 5.8202191 0 0 Z " fill="#33699E" transform="translate(203,132)"/>
<path d="M0 0 C1.89453125 0.66015625 1.89453125 0.66015625 4 2 C5.01171875 4.49609375 5.01171875 4.49609375 5.6875 7.4375 C5.91824219 8.40558594 6.14898437 9.37367188 6.38671875 10.37109375 C6.58910156 11.23863281 6.79148438 12.10617188 7 13 C7.33 13.99 7.66 14.98 8 16 C10.50447516 17.21869929 10.50447516 17.21869929 13 18 C12.67 19.65 12.34 21.3 12 23 C12.66 23.33 13.32 23.66 14 24 C14 25.65 14 27.3 14 29 C14.9075 29.103125 15.815 29.20625 16.75 29.3125 C20.03071844 30.00649813 21.60889095 30.70085668 24 33 C24 33.66 24 34.32 24 35 C28.92772031 36.76892524 33.88634986 37.9318153 39 39 C39 40.65 39 42.3 39 44 C45.88702108 45.27022282 52.75225841 45.17423374 59.73803711 45.20532227 C61.1282174 45.21491333 62.51839484 45.22492411 63.90856934 45.23532104 C67.66628117 45.26224323 71.42400541 45.28332106 75.1817596 45.30332303 C79.11489388 45.3252613 83.04799051 45.35261146 86.98109436 45.37937927 C94.42173532 45.42920051 101.8623973 45.47417834 109.30307919 45.51740164 C117.77710756 45.5668646 126.25109814 45.621749 134.72508991 45.67708123 C152.15002496 45.79073893 169.57499516 45.89761297 187 46 C187 46.33 187 46.66 187 47 C168.65821674 47.04679503 150.31644904 47.08202555 131.97461891 47.10362434 C123.45750554 47.11392119 114.94042935 47.127951 106.42333984 47.15087891 C98.99674783 47.17086162 91.57018274 47.183728 84.14356458 47.18817699 C80.21404966 47.19077612 76.28461176 47.19685182 72.35512161 47.21146011 C68.65007989 47.22512128 64.9451463 47.22920554 61.24008179 47.22621536 C59.24527603 47.22702056 57.25048181 47.23773726 55.25570679 47.24884033 C39.93529451 47.21398814 26.03141015 43.7280991 14.66796875 32.80078125 C7.28754204 24.8326859 0.28693878 13.74734696 -0.125 2.625 C-0.08375 1.75875 -0.0425 0.8925 0 0 Z " fill="#395281" transform="translate(203,147)"/>
<path d="M0 0 C3.55092851 3.12051293 5.91046946 6.33049955 8.375 10.375 C12.12982023 16.43985093 16.35530222 20.91800387 21.9375 25.3125 C22.618125 25.869375 23.29875 26.42625 24 27 C24 27.66 24 28.32 24 29 C-9.99 29 -43.98 29 -79 29 C-79 28.67 -79 28.34 -79 28 C-66.79 27.67 -54.58 27.34 -42 27 C-42 26.01 -42 25.02 -42 24 C-38.125 24.875 -38.125 24.875 -37 26 C-35.58774954 26.0928726 -34.17091066 26.11746772 -32.75561523 26.11352539 C-31.40432777 26.11341209 -31.40432777 26.11341209 -30.02574158 26.11329651 C-28.5570034 26.10555458 -28.5570034 26.10555458 -27.05859375 26.09765625 C-26.06118668 26.0962413 -25.0637796 26.09482635 -24.03614807 26.09336853 C-20.83656876 26.08775114 -17.63705831 26.07519571 -14.4375 26.0625 C-12.27408955 26.05748724 -10.11067801 26.05292395 -7.94726562 26.04882812 C-2.63148675 26.03777607 2.68425171 26.02102104 8 26 C8.02835937 24.74058594 8.05671875 23.48117188 8.0859375 22.18359375 C8.10188965 21.47517334 8.1178418 20.76675293 8.13427734 20.03686523 C7.93995944 17.0892393 6.80238723 15.28764533 5 13 C4.01 12.505 4.01 12.505 3 12 C3 11.34 3 10.68 3 10 C2.01 10 1.02 10 0 10 C0 6.7 0 3.4 0 0 Z " fill="#908AC3" transform="translate(368,164)"/>
<path d="M0 0 C0.12117188 1.12277344 0.24234375 2.24554688 0.3671875 3.40234375 C1.21510116 11.04636221 2.09893378 18.53152556 4 26 C2.515 26.495 2.515 26.495 1 27 C0.67 25.35 0.34 23.7 0 22 C-0.66 22 -1.32 22 -2 22 C-2.36505516 19.93939936 -2.71660715 17.87640368 -3.0625 15.8125 C-3.25972656 14.66394531 -3.45695312 13.51539063 -3.66015625 12.33203125 C-3.97822284 9.21351634 -3.80843264 7.00194217 -3 4 C-4.68379761 4.24339111 -4.68379761 4.24339111 -6.40161133 4.49169922 C-11.13629334 5.08076612 -15.80811298 5.14429992 -20.57421875 5.1328125 C-21.46107864 5.13376923 -22.34793854 5.13472595 -23.26167297 5.13571167 C-25.12309847 5.13638805 -26.98452639 5.13457185 -28.84594727 5.13037109 C-31.68966964 5.1249959 -34.53323547 5.13034435 -37.37695312 5.13671875 C-39.19270868 5.13605825 -41.00846414 5.13477766 -42.82421875 5.1328125 C-43.67014084 5.13483673 -44.51606293 5.13686096 -45.38761902 5.13894653 C-49.4112955 5.12298573 -53.06276877 4.91406244 -57 4 C-58.47274006 3.86378815 -59.94862749 3.75798279 -61.42578125 3.68359375 C-62.22177734 3.64169922 -63.01777344 3.59980469 -63.83789062 3.55664062 C-64.65451172 3.51732422 -65.47113281 3.47800781 -66.3125 3.4375 C-67.14845703 3.39431641 -67.98441406 3.35113281 -68.84570312 3.30664062 C-70.89696935 3.20114693 -72.9484648 3.10012685 -75 3 C-75 2.67 -75 2.34 -75 2 C-74.28527023 1.99191315 -73.57054047 1.98382629 -72.83415222 1.97549438 C-66.05329677 1.89710999 -59.2726094 1.80969247 -52.49199963 1.71247292 C-49.00715698 1.66281704 -45.52234023 1.61648824 -42.03735352 1.578125 C-38.01821009 1.53372854 -33.99940756 1.47421029 -29.98046875 1.4140625 C-28.12980049 1.39673569 -28.12980049 1.39673569 -26.241745 1.37905884 C-19.76363385 1.2700121 -13.72420404 0.7869482 -7.4030304 -0.67471313 C-4.69333125 -1.0415123 -2.63527261 -0.66981443 0 0 Z " fill="#7E81D4" transform="translate(363,131)"/>
<path d="M0 0 C0.33 0 0.66 0 1 0 C1 7.92 1 15.84 1 24 C5.44521118 23.99214478 5.44521118 23.99214478 9.98022461 23.98413086 C19.74715538 23.96759668 29.51408676 23.95652947 39.28102779 23.94818783 C45.20550715 23.94295851 51.12997222 23.93585999 57.05444336 23.92456055 C62.76672571 23.91373339 68.47899428 23.90772353 74.19128609 23.90512276 C76.37588277 23.9032682 78.56047865 23.899647 80.7450695 23.89426994 C83.79352349 23.88706179 86.84191979 23.88600896 89.89038086 23.88647461 C90.80315796 23.88287933 91.71593506 23.87928406 92.65637207 23.87557983 C98.88594784 23.88594784 98.88594784 23.88594784 100 25 C100.09268999 26.35094982 100.11747326 27.70667091 100.11352539 29.06079102 C100.11341209 30.35201622 100.11341209 30.35201622 100.11329651 31.66932678 C100.10813522 32.60473801 100.10297394 33.54014923 100.09765625 34.50390625 C100.0962413 35.45692123 100.09482635 36.40993622 100.09336853 37.39183044 C100.08775152 40.44875165 100.07519616 43.50560077 100.0625 46.5625 C100.05748719 48.62955624 100.05292391 50.69661362 100.04882812 52.76367188 C100.03777656 57.84247588 100.02050055 62.9212257 100 68 C99.01 68 98.02 68 97 68 C96.896875 68.7425 96.79375 69.485 96.6875 70.25 C95.73154281 74.07382874 94.32050531 76.19969375 90.9375 78.25 C89 79 89 79 87 79 C86.34 79.66 85.68 80.32 85 81 C82.375 81.125 82.375 81.125 80 81 C81.62339805 79.29115995 83.29319053 77.62553283 85 76 C85.66 76 86.32 76 87 76 C87 75.34 87 74.68 87 74 C88.64453125 72.4140625 88.64453125 72.4140625 90.8125 70.625 C93.7843058 68.16744111 95.62230978 66.17025363 98 63 C98 50.79 98 38.58 98 26 C65.66 25.67 33.32 25.34 0 25 C-1.40059863 16.59640819 -1.52614081 8.39377446 0 0 Z " fill="#BFBDC0" transform="translate(202,281)"/>
<path d="M0 0 C4.02632032 8.72369404 4.33866789 16.96312574 1.125 26.0625 C-0.05097412 29.02856805 -1.21857749 31.32786623 -3 34 C-3.66 34 -4.32 34 -5 34 C-5.20625 34.5775 -5.4125 35.155 -5.625 35.75 C-7.89004259 39.45643333 -10.88920765 41.41278709 -15.078125 42.578125 C-20.88882685 43.51271341 -25.7282996 42.5936766 -31 40 C-33.5625 37.9375 -33.5625 37.9375 -35 36 C-35 35.34 -35 34.68 -35 34 C-35.66 34 -36.32 34 -37 34 C-37.33 32.68 -37.66 31.36 -38 30 C-34.6875 30.0625 -34.6875 30.0625 -31 31 C-29.25 34.5 -29.25 34.5 -28 38 C-22.76382571 39.74539143 -17.32995152 39.26903608 -12 38 C-11.67 37.34 -11.34 36.68 -11 36 C-8.4375 35.375 -8.4375 35.375 -6 35 C-5.95101562 34.21753906 -5.90203125 33.43507812 -5.8515625 32.62890625 C-5.77679688 31.61699219 -5.70203125 30.60507813 -5.625 29.5625 C-5.55539062 28.55316406 -5.48578125 27.54382813 -5.4140625 26.50390625 C-5.27742188 25.67761719 -5.14078125 24.85132813 -5 24 C-4.34 23.67 -3.68 23.34 -3 23 C-3 22.34 -3 21.68 -3 21 C-2.34 21 -1.68 21 -1 21 C-1 21.66 -1 22.32 -1 23 C-0.34 23 0.32 23 1 23 C0.855625 21.700625 0.71125 20.40125 0.5625 19.0625 C0.48128906 18.33160156 0.40007812 17.60070312 0.31640625 16.84765625 C0.18113386 14.98859771 0.18113386 14.98859771 -1 14 C-1.07179964 12.48071962 -1.08392007 10.95832518 -1.0625 9.4375 C-1.05347656 8.61121094 -1.04445313 7.78492188 -1.03515625 6.93359375 C-1.02355469 6.29550781 -1.01195312 5.65742187 -1 5 C-1.99 5.33 -2.98 5.66 -4 6 C-4.66 5.34 -5.32 4.68 -6 4 C-2.25 0 -2.25 0 0 0 Z " fill="#8E70B6" transform="translate(438,121)"/>
<path d="M0 0 C-0.33 7.59 -0.66 15.18 -1 23 C-1.33 23 -1.66 23 -2 23 C-2.33 18.71 -2.66 14.42 -3 10 C-7.44992574 8.22002971 -9.43711531 7.78777281 -14 8 C-14.05789006 11.45826342 -14.09355821 14.91640293 -14.125 18.375 C-14.14175781 19.35984375 -14.15851563 20.3446875 -14.17578125 21.359375 C-14.18222656 22.30039063 -14.18867188 23.24140625 -14.1953125 24.2109375 C-14.20578613 25.08024902 -14.21625977 25.94956055 -14.22705078 26.84521484 C-14.20595109 29.21345939 -14.20595109 29.21345939 -12 31 C-10.41288949 36.20219557 -9.77424915 40.58197968 -10 46 C-9.34 46.33 -8.68 46.66 -8 47 C-8.66 47.66 -9.32 48.32 -10 49 C-17.23082525 33.01487375 -17.23082525 33.01487375 -18 26 C-18.153479 25.01676758 -18.153479 25.01676758 -18.31005859 24.01367188 C-19.08458227 18.68346705 -19.83826324 13.17149961 -18 8 C-14.08267858 3.31763933 -6.00765534 -2.00255178 0 0 Z " fill="#6977B4" transform="translate(387,119)"/>
<path d="M0 0 C0.66 1.32 1.32 2.64 2 4 C-9.22263193 11.95931343 -19.02271254 16.39167797 -33 15 C-44.19047619 11.80952381 -44.19047619 11.80952381 -48 8 C-44.52510301 6.35907642 -42.66152472 5.73740527 -39 7 C-38.34 7 -37.68 7 -37 7 C-36.67 7.99 -36.34 8.98 -36 10 C-36.66 10 -37.32 10 -38 10 C-38 10.66 -38 11.32 -38 12 C-34.11054201 12.06705962 -30.586355 12.10148452 -26.75 11.4375 C-24.06794095 11.01080879 -22.53426415 11.12275472 -20 12 C-19.67 10.35 -19.34 8.7 -19 7 C-13.06 6.505 -13.06 6.505 -7 6 C-7 5.34 -7 4.68 -7 4 C-6.21625 3.896875 -5.4325 3.79375 -4.625 3.6875 C-1.66954819 3.22404978 -1.66954819 3.22404978 0 0 Z " fill="#9B7EC5" transform="translate(444,179)"/>
<path d="M0 0 C0.66 0.33 1.32 0.66 2 1 C1.34 2.32 0.68 3.64 0 5 C-0.66 5 -1.32 5 -2 5 C-2.33 6.32 -2.66 7.64 -3 9 C-3.99 9 -4.98 9 -6 9 C-6.309375 9.8971875 -6.309375 9.8971875 -6.625 10.8125 C-8.52695827 13.8383427 -10.75300404 14.64708502 -14 16 C-14.66 16 -15.32 16 -16 16 C-16 16.99 -16 17.98 -16 19 C-16.66 19.66 -17.32 20.32 -18 21 C-18 21.99 -18 22.98 -18 24 C-19.65 24 -21.3 24 -23 24 C-22.938125 24.763125 -22.87625 25.52625 -22.8125 26.3125 C-23 29 -23 29 -24.5 30.8125 C-24.995 31.204375 -25.49 31.59625 -26 32 C-26 31.01 -26 30.02 -26 29 C-26.66 29 -27.32 29 -28 29 C-28.33 29.99 -28.66 30.98 -29 32 C-29.99 31.01 -30.98 30.02 -32 29 C-26.66410478 22.86125017 -21.26290933 17.18647179 -15 12 C-13.9786512 11.13993467 -12.95785843 10.27920879 -11.9375 9.41796875 C-3.56325051 2.37550034 -3.56325051 2.37550034 0 0 Z " fill="#EEEFEA" transform="translate(86,95)"/>
<path d="M0 0 C1.15371094 -0.01417969 2.30742187 -0.02835937 3.49609375 -0.04296875 C6.5625 0.1875 6.5625 0.1875 9.5625 2.1875 C7.6875 6.9375 7.6875 6.9375 6.5625 9.1875 C6.4935528 10.56092831 6.47782292 11.93752102 6.5 13.3125 C6.520625 14.59125 6.54125 15.87 6.5625 17.1875 C5.5725 17.5175 4.5825 17.8475 3.5625 18.1875 C3.2325 17.1975 2.9025 16.2075 2.5625 15.1875 C3.2225 15.1875 3.8825 15.1875 4.5625 15.1875 C4.43681641 14.24777344 4.43681641 14.24777344 4.30859375 13.2890625 C4.20675781 12.47179687 4.10492188 11.65453125 4 10.8125 C3.89558594 10.00039062 3.79117187 9.18828125 3.68359375 8.3515625 C3.5625 6.1875 3.5625 6.1875 4.5625 4.1875 C3.14499437 4.30259661 1.72848831 4.43003658 0.3125 4.5625 C-0.47640625 4.63210937 -1.2653125 4.70171875 -2.078125 4.7734375 C-4.58472596 5.21333767 -6.28572646 5.83574483 -8.4375 7.1875 C-9.4275 8.6725 -9.4275 8.6725 -10.4375 10.1875 C-14.0625 10.875 -14.0625 10.875 -17.4375 11.1875 C-16.07060446 8.03680578 -14.58092115 6.17858226 -11.9375 4 C-11.3290625 3.49082031 -10.720625 2.98164062 -10.09375 2.45703125 C-6.73064407 -0.12082117 -4.18794013 0.02334415 0 0 Z " fill="#8F7FD4" transform="translate(417.4375,105.8125)"/>
<path d="M0 0 C4.62 0 9.24 0 14 0 C13.67 0.99 13.34 1.98 13 3 C14.299375 2.835 15.59875 2.67 16.9375 2.5 C21.65419287 1.9684362 26.25638935 1.92470459 31 2 C31 2.66 31 3.32 31 4 C7.65864942 5.01109998 -15.64079475 5.115993 -39 5 C-39 4.67 -39 4.34 -39 4 C-26.46 3.34 -13.92 2.68 -1 2 C-0.67 1.34 -0.34 0.68 0 0 Z " fill="#7A98D9" transform="translate(288,188)"/>
<path d="M0 0 C0.66 0.66 1.32 1.32 2 2 C0.6696875 1.87625 0.6696875 1.87625 -0.6875 1.75 C-4.79068934 2.05967467 -6.15799111 3.07904641 -9 6 C-10.43923199 8.50995496 -10.43923199 8.50995496 -11 11 C-9.74458443 13.51083114 -8.49936512 13.87125446 -6 15 C-6 15.99 -6 16.98 -6 18 C-10.62 17.34 -15.24 16.68 -20 16 C-18.57301185 8.86505925 -14.44943591 5.51067181 -9.5 0.4375 C-5.99063064 -1.58038738 -3.83289936 -1.01246398 0 0 Z " fill="#8982D1" transform="translate(434,76)"/>
<path d="M0 0 C1.89453125 0.66015625 1.89453125 0.66015625 4 2 C5.01171875 4.49609375 5.01171875 4.49609375 5.6875 7.4375 C5.91824219 8.40558594 6.14898437 9.37367188 6.38671875 10.37109375 C6.58910156 11.23863281 6.79148438 12.10617188 7 13 C7.33 13.99 7.66 14.98 8 16 C10.50447516 17.21869929 10.50447516 17.21869929 13 18 C12.67 19.65 12.34 21.3 12 23 C12.66 23.33 13.32 23.66 14 24 C14 25.65 14 27.3 14 29 C14.66 29 15.32 29 16 29 C16.33 30.65 16.66 32.3 17 34 C8.38075257 25.62701678 0.34062761 15.19694539 -0.125 2.625 C-0.08375 1.75875 -0.0425 0.8925 0 0 Z " fill="#4386BE" transform="translate(203,147)"/>
<path d="M0 0 C9.24 0 18.48 0 28 0 C24.07097874 3.14321701 20.82825556 5.28826161 16.4375 7.5625 C11.92746056 9.89549663 11.92746056 9.89549663 7.72265625 12.71484375 C6 14 6 14 4 14 C4 14.66 4 15.32 4 16 C2.02 16.99 0.04 17.98 -2 19 C-1.25 14.25 -1.25 14.25 1 12 C1.99 12 2.98 12 4 12 C4.2475 10.824375 4.2475 10.824375 4.5 9.625 C6 7 6 7 7.80859375 6.1875 C11.4322414 5.23005915 13.36221108 4.78740369 17 6 C17 4.68 17 3.36 17 2 C11.39 1.67 5.78 1.34 0 1 C0 0.67 0 0.34 0 0 Z " fill="#F3F3F3" transform="translate(416,59)"/>
<path d="M0 0 C6.26749401 8.35665868 6.4337253 16.51302779 6.28125 26.70385742 C6.24980681 28.82553583 6.2402386 30.9464698 6.234375 33.06835938 C6.15889567 44.26261952 6.15889567 44.26261952 5 48 C4.34 48 3.68 48 3 48 C2.67 48.99 2.34 49.98 2 51 C1.67 51 1.34 51 1 51 C1 49.35 1 47.7 1 46 C0.34 45.67 -0.32 45.34 -1 45 C1 42 1 42 4 41 C4 33.41 4 25.82 4 18 C3.01 17.67 2.02 17.34 1 17 C0.67 11.39 0.34 5.78 0 0 Z " fill="#B179CF" transform="translate(458,103)"/>
<path d="M0 0 C4.40029501 3.86692592 7.15347047 8.29408372 10.21875 13.26171875 C12.53293537 16.81927126 15.14492999 19.86638658 18 23 C16.02 22.67 14.04 22.34 12 22 C12 21.01 12 20.02 12 19 C11.1028125 18.9071875 11.1028125 18.9071875 10.1875 18.8125 C7.13084514 17.67717105 6.53365974 15.78847225 5 13 C4.34 12.67 3.68 12.34 3 12 C3 11.34 3 10.68 3 10 C2.01 10 1.02 10 0 10 C0 6.7 0 3.4 0 0 Z " fill="#947AC4" transform="translate(368,164)"/>
<path d="M0 0 C0.12117188 1.12277344 0.24234375 2.24554688 0.3671875 3.40234375 C1.21510116 11.04636221 2.09893378 18.53152556 4 26 C3.01 26.33 2.02 26.66 1 27 C0.67 25.35 0.34 23.7 0 22 C-0.66 22 -1.32 22 -2 22 C-2.36192504 19.87630763 -2.71431747 17.7509887 -3.0625 15.625 C-3.25972656 14.44164062 -3.45695312 13.25828125 -3.66015625 12.0390625 C-4 9 -4 9 -3 7 C-2.34 7 -1.68 7 -1 7 C-1.66 5.02 -2.32 3.04 -3 1 C-5.31 1 -7.62 1 -10 1 C-10 0.67 -10 0.34 -10 0 C-6.26940301 -0.95929637 -3.73201925 -0.84676067 0 0 Z " fill="#957ED0" transform="translate(363,131)"/>
<path d="M0 0 C-0.33 7.59 -0.66 15.18 -1 23 C-1.33 23 -1.66 23 -2 23 C-2.33 18.71 -2.66 14.42 -3 10 C-7.7040631 8.06572816 -7.7040631 8.06572816 -12.3125 7.875 C-13.529375 7.91625 -14.74625 7.9575 -16 8 C-13.6067214 5.38628785 -11.01602954 3.59911335 -8 1.75 C-7.13375 1.20859375 -6.2675 0.6671875 -5.375 0.109375 C-3 -1 -3 -1 0 0 Z " fill="#5669A9" transform="translate(387,119)"/>
<path d="M0 0 C0.33 0 0.66 0 1 0 C1.01417969 1.14855469 1.02835937 2.29710938 1.04296875 3.48046875 C1.3079204 13.74706812 2.63689793 21.60777717 7 31 C7.6756785 32.66303361 8.345424 34.32854779 9 36 C7.35 35.67 5.7 35.34 4 35 C4 33.35 4 31.7 4 30 C3.34 29.67 2.68 29.34 2 29 C-2.69278164 24.30721836 -1.1191305 14.47431672 -1.1328125 8.26953125 C-1.01557701 5.38346929 -0.66516197 2.80318258 0 0 Z " fill="#7E8DD6" transform="translate(384,124)"/>
<path d="M0 0 C1.98 0.99 3.96 1.98 6 3 C5.67 6.63 5.34 10.26 5 14 C5.66 14 6.32 14 7 14 C7.08741124 17.56234428 7.14052896 21.12441108 7.1875 24.6875 C7.22520508 26.19860352 7.22520508 26.19860352 7.26367188 27.74023438 C7.35493909 36.95822299 7.35493909 36.95822299 4 41 C2.99023317 37.85850321 3.19285189 36.14393676 4 33 C4.60804219 21.30688105 3.7227423 11.16822691 0 0 Z " fill="#82659E" transform="translate(444,110)"/>
<path d="M0 0 C0.66 0.33 1.32 0.66 2 1 C1.67 1.33 1.34 1.66 1 2 C1.66 2.66 2.32 3.32 3 4 C2.34 4 1.68 4 1 4 C1 4.66 1 5.32 1 6 C0.34 6 -0.32 6 -1 6 C-1 6.66 -1 7.32 -1 8 C-1.99 8 -2.98 8 -4 8 C-4 8.66 -4 9.32 -4 10 C-5.9914056 10.38133299 -7.99279077 10.71325582 -10 11 C-10.33 10.67 -10.66 10.34 -11 10 C-13.8992226 10.46761655 -14.86675182 10.86675182 -17 13 C-19.625 12.625 -19.625 12.625 -22 12 C-19.75748687 10.50499124 -17.70952089 9.30163094 -15.3125 8.125 C-14.26449219 7.60679687 -14.26449219 7.60679687 -13.1953125 7.078125 C-11.73177083 6.359375 -10.26822917 5.640625 -8.8046875 4.921875 C-7.75667969 4.40367187 -7.75667969 4.40367187 -6.6875 3.875 C-5.73423828 3.40707031 -5.73423828 3.40707031 -4.76171875 2.9296875 C-2.74477488 1.90369691 -2.74477488 1.90369691 0 0 Z " fill="#D1D2D1" transform="translate(273,367)"/>
<path d="M0 0 C0.33 0.99 0.66 1.98 1 3 C0.34 3 -0.32 3 -1 3 C-1 3.66 -1 4.32 -1 5 C2.88945799 5.06705962 6.413645 5.10148452 10.25 4.4375 C12.93205905 4.01080879 14.46573585 4.12275472 17 5 C17 5.99 17 6.98 17 8 C7.32713973 8.71240378 -0.28487918 7.35096803 -9 3 C-9.66 2.34 -10.32 1.68 -11 1 C-7.2297564 -1.56376565 -4.32597804 -0.83191885 0 0 Z " fill="#6C67A8" transform="translate(407,186)"/>
<path d="M0 0 C0.33 0 0.66 0 1 0 C2.19759505 16.6882267 2.57918521 31.55012246 -5 47 C-5.99 47.495 -5.99 47.495 -7 48 C-7 46.68 -7 45.36 -7 44 C-6.34 44 -5.68 44 -5 44 C-5.33 42.35 -5.66 40.7 -6 39 C-5.34 39 -4.68 39 -4 39 C-3.505 36.03 -3.505 36.03 -3 33 C-2.34 33 -1.68 33 -1 33 C-0.67 22.11 -0.34 11.22 0 0 Z " fill="#775489" transform="translate(464,118)"/>
<path d="M0 0 C3.13902852 6.80122845 3.33452052 12.56621057 3 20 C2.01 20 1.02 20 0 20 C0.020625 19.195625 0.04125 18.39125 0.0625 17.5625 C0.29633621 15.06645115 0.29633621 15.06645115 -1 14 C-1.07179964 12.48071962 -1.08392007 10.95832518 -1.0625 9.4375 C-1.05347656 8.61121094 -1.04445313 7.78492188 -1.03515625 6.93359375 C-1.02355469 6.29550781 -1.01195312 5.65742187 -1 5 C-1.99 5.33 -2.98 5.66 -4 6 C-4.66 5.34 -5.32 4.68 -6 4 C-2.25 0 -2.25 0 0 0 Z " fill="#8D6BAC" transform="translate(438,121)"/>
<path d="M0 0 C0.66 0.33 1.32 0.66 2 1 C1.34 2.32 0.68 3.64 0 5 C-0.66 5 -1.32 5 -2 5 C-2.33 6.32 -2.66 7.64 -3 9 C-3.99 9 -4.98 9 -6 9 C-6.185625 9.61875 -6.37125 10.2375 -6.5625 10.875 C-8.74034913 14.09442916 -11.30594962 14.27438296 -15 15 C-15.66 14.67 -16.32 14.34 -17 14 C-11.5488903 8.96567535 -6.15891648 4.15057415 0 0 Z " fill="#D4D4D4" transform="translate(86,95)"/>
<path d="M0 0 C-1.65 0.66 -3.3 1.32 -5 2 C-5 2.66 -5 3.32 -5 4 C-7.5 5.625 -7.5 5.625 -10 7 C-10.33 6.34 -10.66 5.68 -11 5 C-11.66 5 -12.32 5 -13 5 C-13.33 5.99 -13.66 6.98 -14 8 C-14.66 8 -15.32 8 -16 8 C-16 7.01 -16 6.02 -16 5 C-17.0725 5.350625 -18.145 5.70125 -19.25 6.0625 C-22.78720743 6.94680186 -23.74811124 7.02880551 -27 6 C-24.47950607 5.20723961 -21.95861986 4.41576535 -19.4375 3.625 C-18.73302734 3.40328125 -18.02855469 3.1815625 -17.30273438 2.953125 C-15.20382439 2.29540206 -13.10259322 1.64584436 -11 1 C-10.00818726 0.6913501 -10.00818726 0.6913501 -8.99633789 0.37646484 C-3.32885742 -1.33154297 -3.32885742 -1.33154297 0 0 Z " fill="#D0D1CF" transform="translate(159,64)"/>
<path d="M0 0 C3.875 0.875 3.875 0.875 5 2 C6.47250645 2.12232644 7.95065711 2.1777456 9.42797852 2.20532227 C10.83932823 2.2352401 10.83932823 2.2352401 12.27919006 2.26576233 C13.30209641 2.28247482 14.32500275 2.29918732 15.37890625 2.31640625 C16.42070541 2.33718735 17.46250458 2.35796844 18.53587341 2.37937927 C21.87801247 2.44499057 25.22023285 2.50381331 28.5625 2.5625 C30.82227418 2.60567422 33.08204001 2.64928814 35.34179688 2.69335938 C40.89444421 2.80068367 46.44717321 2.90242812 52 3 C52 3.33 52 3.66 52 4 C32.53 4 13.06 4 -7 4 C-7 3.67 -7 3.34 -7 3 C-4.69 3 -2.38 3 0 3 C0 2.01 0 1.02 0 0 Z " fill="#9B93DE" transform="translate(326,188)"/>
<path d="M0 0 C-1.32 0.33 -2.64 0.66 -4 1 C-4 1.66 -4 2.32 -4 3 C-34.195 2.505 -34.195 2.505 -65 2 C-65 1.67 -65 1.34 -65 1 C-57.41098992 0.86901158 -49.82197045 0.73857952 -42.23293877 0.60884857 C-38.7086732 0.54858561 -35.18441107 0.48813438 -31.66015625 0.42724609 C-27.60417627 0.35717962 -23.54818246 0.28794425 -19.4921875 0.21875 C-18.23260223 0.19687622 -16.97301697 0.17500244 -15.67526245 0.15246582 C-13.90410568 0.12243469 -13.90410568 0.12243469 -12.09716797 0.09179688 C-11.06236298 0.07403198 -10.02755798 0.05626709 -8.96139526 0.03796387 C-5.97391164 -0.00033444 -2.98769392 -0.00654517 0 0 Z " fill="#777FC2" transform="translate(353,132)"/>
<path d="M0 0 C0.66 0 1.32 0 2 0 C2.33 1.32 2.66 2.64 3 4 C3.66 3.34 4.32 2.68 5 2 C6.65 3.98 8.3 5.96 10 8 C7.51256905 12.08649371 6.38635744 13.80682128 2 16 C1.34 10.72 0.68 5.44 0 0 Z " fill="#BCBBBB" transform="translate(470,118)"/>
<path d="M0 0 C0.99 0.66 1.98 1.32 3 2 C2.35952602 5.44748958 1.00294981 7.84644185 -0.9375 10.75 C-1.46214844 11.54921875 -1.98679687 12.3484375 -2.52734375 13.171875 C-3.01332031 13.77515625 -3.49929688 14.3784375 -4 15 C-4.66 15 -5.32 15 -6 15 C-6.33 15.66 -6.66 16.32 -7 17 C-7.0896358 13.77311135 -6.80270414 11.11047855 -6 8 C-6 6.68 -6 5.36 -6 4 C-4.68 4 -3.36 4 -2 4 C-1.34 2.68 -0.68 1.36 0 0 Z " fill="#946AC2" transform="translate(454,164)"/>
<path d="M0 0 C0.66 1.32 1.32 2.64 2 4 C2.33 4 2.66 4 3 4 C3.125 6.875 3.125 6.875 3 10 C1.90580366 11.09419634 0.79612858 12.17607077 -0.375 13.1875 C-2.76790955 15.85651449 -4.2804885 18.8574445 -6 22 C-6.66 22 -7.32 22 -8 22 C-5.92957946 14.39162534 -3.14169523 7.2271408 0 0 Z " fill="#CFCFCE" transform="translate(21,175)"/>
<path d="M0 0 C2.33405954 3.50108931 3.11363958 6.90754908 4.0625 10.9375 C4.23587891 11.65357422 4.40925781 12.36964844 4.58789062 13.10742188 C5.06276739 15.07060971 5.53162336 17.03525123 6 19 C6.33179161 20.33371782 6.6647132 21.66715655 7 23 C6.34 23 5.68 23 5 23 C5 22.34 5 21.68 5 21 C3.68 20.34 2.36 19.68 1 19 C1.04125 18.21625 1.0825 17.4325 1.125 16.625 C1.28728734 13.83883881 1.28728734 13.83883881 -1 12 C-1.23600253 7.83062202 -0.98329211 4.05607995 0 0 Z " fill="#ACAEAE" transform="translate(73,278)"/>
<path d="M0 0 C0.64453125 1.765625 0.64453125 1.765625 1 4 C0.07421875 5.921875 0.07421875 5.921875 -1.3125 7.75 C-1.98732422 8.67039063 -1.98732422 8.67039063 -2.67578125 9.609375 C-3.11277344 10.06828125 -3.54976563 10.5271875 -4 11 C-4.66 11 -5.32 11 -6 11 C-6.33 11.99 -6.66 12.98 -7 14 C-9.31 13.34 -11.62 12.68 -14 12 C-13.443125 11.5875 -12.88625 11.175 -12.3125 10.75 C-10.63388406 9.47969605 -8.99217853 8.16014877 -7.375 6.8125 C-5 5 -5 5 -3 5 C-2.690625 4.360625 -2.38125 3.72125 -2.0625 3.0625 C-1 1 -1 1 0 0 Z " fill="#8D78BF" transform="translate(441,161)"/>
<path d="M0 0 C0.33 0.99 0.66 1.98 1 3 C1.99 3 2.98 3 4 3 C4.33 3.99 4.66 4.98 5 6 C5.66 6.33 6.32 6.66 7 7 C7 7.66 7 8.32 7 9 C6.01 9.33 5.02 9.66 4 10 C4.33 15.28 4.66 20.56 5 26 C4.01 26.33 3.02 26.66 2 27 C0.92124177 19.80827843 1.2061358 13.21805755 2 6 C1.34 6 0.68 6 0 6 C0 4.02 0 2.04 0 0 Z " fill="#AB7BD8" transform="translate(449,118)"/>
<path d="M0 0 C1.32 0.33 2.64 0.66 4 1 C3.67 2.32 3.34 3.64 3 5 C4.32 4.67 5.64 4.34 7 4 C7.82638376 6.89234315 8 8.88742431 8 12 C9.65 11.67 11.3 11.34 13 11 C12.79375 11.61875 12.5875 12.2375 12.375 12.875 C12.25125 13.57625 12.1275 14.2775 12 15 C12.66 15.66 13.32 16.32 14 17 C13.625 19.125 13.625 19.125 13 21 C11.67981412 19.25579087 10.36911398 17.50439909 9.0625 15.75 C8.33160156 14.77546875 7.60070313 13.8009375 6.84765625 12.796875 C5.24654921 10.3732119 4.42363762 8.8242508 4 6 C3.34 6 2.68 6 2 6 C1.34 4.02 0.68 2.04 0 0 Z " fill="#ABABAB" transform="translate(33,356)"/>
<path d="M0 0 C0.66 0.99 1.32 1.98 2 3 C-0.0068492 6.0102738 -1.60234194 7.68477753 -5 9 C-5.66 9 -6.32 9 -7 9 C-7.66 9.66 -8.32 10.32 -9 11 C-11.625 11.125 -11.625 11.125 -14 11 C-12.37660195 9.29115995 -10.70680947 7.62553283 -9 6 C-8.34 6 -7.68 6 -7 6 C-7 5.34 -7 4.68 -7 4 C-4.69 2.68 -2.38 1.36 0 0 Z " fill="#CFCFCF" transform="translate(296,351)"/>
<path d="M0 0 C2.64 0.66 5.28 1.32 8 2 C8 2.99 8 3.98 8 5 C9.03125 5.103125 10.0625 5.20625 11.125 5.3125 C15.10633631 6.01886612 19.04766693 7.04766693 22 10 C24.32817964 10.36760731 26.6618385 10.70241581 29 11 C29 11.33 29 11.66 29 12 C18.24031004 13.03458557 8.25877207 7.59033327 0 1 C0 0.67 0 0.34 0 0 Z " fill="#3E658D" transform="translate(220,181)"/>
<path d="M0 0 C1.2065625 0.0309375 1.2065625 0.0309375 2.4375 0.0625 C1.963125 0.413125 1.48875 0.76375 1 1.125 C-1.24123825 3.90413543 -1.23367658 6.5769717 -1.5625 10.0625 C-0.9025 10.3925 -0.2425 10.7225 0.4375 11.0625 C0.1075 11.64 -0.2225 12.2175 -0.5625 12.8125 C-1.83325898 15.26133862 -1.83325898 15.26133862 -1.5625 19.0625 C-0.9025 19.0625 -0.2425 19.0625 0.4375 19.0625 C0.1075 20.7125 -0.2225 22.3625 -0.5625 24.0625 C-1.5525 23.4025 -2.5425 22.7425 -3.5625 22.0625 C-3.91894531 19.92358398 -3.91894531 19.92358398 -3.890625 17.30859375 C-3.88546875 16.37208984 -3.8803125 15.43558594 -3.875 14.47070312 C-3.854375 13.49037109 -3.83375 12.51003906 -3.8125 11.5 C-3.80734375 10.51580078 -3.8021875 9.53160156 -3.796875 8.51757812 C-3.70394888 0.09034022 -3.70394888 0.09034022 0 0 Z " fill="#7B98E5" transform="translate(375.5625,125.9375)"/>
<path d="M0 0 C1.15371094 -0.01417969 2.30742187 -0.02835937 3.49609375 -0.04296875 C6.5625 0.1875 6.5625 0.1875 9.5625 2.1875 C8.9025 3.5075 8.2425 4.8275 7.5625 6.1875 C7.5625 5.5275 7.5625 4.8675 7.5625 4.1875 C6.9025 4.1875 6.2425 4.1875 5.5625 4.1875 C5.5625 3.5275 5.5625 2.8675 5.5625 2.1875 C-0.6429142 2.67070848 -6.43695246 3.52068124 -12.4375 5.1875 C-8.1263357 0.73263022 -6.22474177 0.03469756 0 0 Z " fill="#7E77B7" transform="translate(417.4375,105.8125)"/>
<path d="M0 0 C1.32 0 2.64 0 4 0 C4 0.66 4 1.32 4 2 C4.66 2 5.32 2 6 2 C6 2.66 6 3.32 6 4 C6.57105469 3.91621094 7.14210937 3.83242187 7.73046875 3.74609375 C14.93934032 2.84068699 21.78761279 3.26519566 29 4 C29 4.33 29 4.66 29 5 C19.43 5 9.86 5 0 5 C-0.33 3.68 -0.66 2.36 -1 1 C-0.67 0.67 -0.34 0.34 0 0 Z " fill="#6CA2DC" transform="translate(242,187)"/>
<path d="M0 0 C0.8353125 0.37125 0.8353125 0.37125 1.6875 0.75 C0.06410195 2.45884005 -1.60569053 4.12446717 -3.3125 5.75 C-3.9725 5.75 -4.6325 5.75 -5.3125 5.75 C-5.3125 6.41 -5.3125 7.07 -5.3125 7.75 C-5.9725 7.75 -6.6325 7.75 -7.3125 7.75 C-7.3125 8.41 -7.3125 9.07 -7.3125 9.75 C-9.8125 11.375 -9.8125 11.375 -12.3125 12.75 C-12.6425 10.77 -12.9725 8.79 -13.3125 6.75 C-12.3225 7.08 -11.3325 7.41 -10.3125 7.75 C-9.9825 6.76 -9.6525 5.77 -9.3125 4.75 C-8.3225 5.41 -7.3325 6.07 -6.3125 6.75 C-6.6425 5.76 -6.9725 4.77 -7.3125 3.75 C-2.88173077 -0.31153846 -2.88173077 -0.31153846 0 0 Z " fill="#C1C2C5" transform="translate(343.3125,395.25)"/>
<path d="M0 0 C0.6875 1.6875 0.6875 1.6875 1 4 C0.04906703 5.69514137 -0.95107762 7.36368108 -2 9 C-2 9.99 -2 10.98 -2 12 C-2.94875 12.309375 -3.8975 12.61875 -4.875 12.9375 C-7.86080408 13.87394742 -7.86080408 13.87394742 -10 15 C-8.18050086 9.17760276 -4.27301206 4.27301206 0 0 Z " fill="#C3C5C5" transform="translate(217,254)"/>
<path d="M0 0 C1.98 0.99 1.98 0.99 4 2 C4 2.66 4 3.32 4 4 C5.83656989 6.96731398 5.83656989 6.96731398 8 9 C8 12.11257569 7.82638376 14.10765685 7 17 C1.49279539 10.92795389 1.49279539 10.92795389 1 6 C0.814375 4.906875 0.62875 3.81375 0.4375 2.6875 C0.293125 1.800625 0.14875 0.91375 0 0 Z " fill="#8491DF" transform="translate(376,159)"/>
<path d="M0 0 C-3.43337406 2.82674877 -6.93945158 5.3569759 -10.6875 7.75 C-11.64011719 8.36359375 -12.59273438 8.9771875 -13.57421875 9.609375 C-16 11 -16 11 -18 11 C-16.25429614 5.76288842 -13.70744997 4.53558012 -9 2 C-7.948125 1.38125 -7.948125 1.38125 -6.875 0.75 C-4.50572363 -0.19771055 -2.52693627 -0.14038535 0 0 Z " fill="#C2C4C9" transform="translate(319,417)"/>
<path d="M0 0 C0.33 0 0.66 0 1 0 C1.68271293 8.35104207 2.15392039 16.61988971 2 25 C1.01 25 0.02 25 -1 25 C-1.33 26.32 -1.66 27.64 -2 29 C-5 29 -5 29 -7 28 C-6.4946875 27.65453125 -5.989375 27.3090625 -5.46875 26.953125 C-2.32932759 24.23727546 -0.26816799 21.89415861 0.33154297 17.65820312 C0.62868863 11.76753537 0.38233447 5.88206875 0 0 Z " fill="#6C6B6D" transform="translate(300,324)"/>
<path d="M0 0 C0.66386719 0.40992188 1.32773437 0.81984375 2.01171875 1.2421875 C2.89472656 1.78101563 3.77773438 2.31984375 4.6875 2.875 C5.55761719 3.40867188 6.42773438 3.94234375 7.32421875 4.4921875 C9.83391082 5.90640814 12.30299069 6.99894789 15 8 C15 8.33 15 8.66 15 9 C14.37351562 9.06058594 13.74703125 9.12117187 13.1015625 9.18359375 C12.28429687 9.26738281 11.46703125 9.35117188 10.625 9.4375 C9.81289063 9.51871094 9.00078125 9.59992188 8.1640625 9.68359375 C5.95727195 9.89090114 5.95727195 9.89090114 4 11 C3.896875 10.236875 3.79375 9.47375 3.6875 8.6875 C2.93793468 5.757381 2.11401167 5.02209812 0 3 C0 2.01 0 1.02 0 0 Z " fill="#7B71BB" transform="translate(397,165)"/>
<path d="M0 0 C1.98 0 3.96 0 6 0 C2.80009492 2.74277578 -0.00499382 4.6302836 -4 6 C-4 6.66 -4 7.32 -4 8 C-5.98 8.99 -7.96 9.98 -10 11 C-9.25 6.25 -9.25 6.25 -7 4 C-6.01 4 -5.02 4 -4 4 C-3.67 3.01 -3.34 2.02 -3 1 C-2.67 1.66 -2.34 2.32 -2 3 C-1.34 3 -0.68 3 0 3 C0 2.01 0 1.02 0 0 Z " fill="#B3B4B8" transform="translate(424,67)"/>
<path d="M0 0 C0.33 0 0.66 0 1 0 C1 1.65 1 3.3 1 5 C-0.32 5.33 -1.64 5.66 -3 6 C-3 7.98 -3 9.96 -3 12 C-3.66 12 -4.32 12 -5 12 C-5.2475 12.804375 -5.495 13.60875 -5.75 14.4375 C-6.1625 15.283125 -6.575 16.12875 -7 17 C-9.078125 17.66015625 -9.078125 17.66015625 -11 18 C-7.68260316 11.79088999 -4.22057086 5.64968821 0 0 Z " fill="#BDC1C3" transform="translate(39,144)"/>
<path d="M0 0 C3.10983703 0.51830617 6.21424852 1.04042425 9.3125 1.625 C10.199375 1.74875 11.08625 1.8725 12 2 C12.33 1.67 12.66 1.34 13 1 C14.99958364 0.95919217 17.00045254 0.95745644 19 1 C19 1.66 19 2.32 19 3 C18.34 3 17.68 3 17 3 C17 3.66 17 4.32 17 5 C17.99 5.33 18.98 5.66 20 6 C18 7 18 7 16.12060547 6.56274414 C15.37697754 6.30614014 14.63334961 6.04953613 13.8671875 5.78515625 C13.06152344 5.51123047 12.25585938 5.23730469 11.42578125 4.95507812 C10.58402344 4.66052734 9.74226562 4.36597656 8.875 4.0625 C8.02550781 3.77181641 7.17601562 3.48113281 6.30078125 3.18164062 C4.19813251 2.46106999 2.09812523 1.73361685 0 1 C0 0.67 0 0.34 0 0 Z " fill="#A8A7AA" transform="translate(136,441)"/>
<path d="M0 0 C1 2 1 2 0.328125 4.20703125 C-3.46987952 13.38554217 -3.46987952 13.38554217 -6 17 C-6.33 17 -6.66 17 -7 17 C-7.125 14.125 -7.125 14.125 -7 11 C-6.34 10.34 -5.68 9.68 -5 9 C-4.87625 8.030625 -4.7525 7.06125 -4.625 6.0625 C-4 3 -4 3 -1.9375 1.125 C-1.298125 0.75375 -0.65875 0.3825 0 0 Z " fill="#C2C1C1" transform="translate(489,104)"/>
<path d="M0 0 C4.14162914 0.46018102 6.24817824 0.85506085 9 4 C9.99 4.33 10.98 4.66 12 5 C12.33 5.99 12.66 6.98 13 8 C13.66 8.33 14.32 8.66 15 9 C15.72159424 10.64363134 16.39351421 12.31050386 17 14 C16.01 14 15.02 14 14 14 C10 9.65714286 10 9.65714286 10 7 C9.46375 6.7525 8.9275 6.505 8.375 6.25 C5.42838581 4.69915043 2.72082434 2.91694442 0 1 C0 0.67 0 0.34 0 0 Z " fill="#6C5F98" transform="translate(428,94)"/>
<path d="M0 0 C2.31 0.33 4.62 0.66 7 1 C9 6.625 9 6.625 9 10 C6.37812506 8.95125002 5.20628639 8.35068687 3.75 5.875 C3.5025 5.25625 3.255 4.6375 3 4 C2.34 4 1.68 4 1 4 C0.67 2.68 0.34 1.36 0 0 Z " fill="#7C78B8" transform="translate(400,151)"/>
<path d="M0 0 C0.33 0.66 0.66 1.32 1 2 C1.99 2.33 2.98 2.66 4 3 C0.37 5.31 -3.26 7.62 -7 10 C-7.33 8.68 -7.66 7.36 -8 6 C-6.75 4.25 -6.75 4.25 -5 3 C-4.01 3 -3.02 3 -2 3 C-2 2.34 -2 1.68 -2 1 C-1.34 0.67 -0.68 0.34 0 0 Z " fill="#D4D4D3" transform="translate(130,141)"/>
<path d="M0 0 C0 0.66 0 1.32 0 2 C-1.32 2 -2.64 2 -4 2 C-4 2.66 -4 3.32 -4 4 C-4.99 4.495 -4.99 4.495 -6 5 C-6.99 6.485 -6.99 6.485 -8 8 C-9.9453125 8.29296875 -9.9453125 8.29296875 -12.125 8.1875 C-14.043125 8.0946875 -14.043125 8.0946875 -16 8 C-13.6067214 5.38628785 -11.01602954 3.59911335 -8 1.75 C-7.13375 1.20859375 -6.2675 0.6671875 -5.375 0.109375 C-3 -1 -3 -1 0 0 Z " fill="#5969A3" transform="translate(387,119)"/>
<path d="M0 0 C3.32875935 3.64578405 5.0219329 8.21084385 6 13 C5.578125 15.28125 5.578125 15.28125 5 17 C2 15 2 15 1.26953125 13.046875 C0.39015144 8.62742774 -0.23254488 4.53462521 0 0 Z " fill="#A178BB" transform="translate(458,103)"/>
<path d="M0 0 C0 0.66 0 1.32 0 2 C-0.99 2.495 -0.99 2.495 -2 3 C-2.33 3.99 -2.66 4.98 -3 6 C-5.31 6.33 -7.62 6.66 -10 7 C-10 7.66 -10 8.32 -10 9 C-10.66 9 -11.32 9 -12 9 C-12.33 9.66 -12.66 10.32 -13 11 C-14.32 10.67 -15.64 10.34 -17 10 C-16.01 9.67 -15.02 9.34 -14 9 C-14 8.34 -14 7.68 -14 7 C-11.4453125 5.2734375 -11.4453125 5.2734375 -8.125 3.375 C-7.03445312 2.74335937 -5.94390625 2.11171875 -4.8203125 1.4609375 C-2 0 -2 0 0 0 Z " fill="#A7A8A8" transform="translate(105,84)"/>
<path d="M0 0 C4.34170523 2.3836813 8.2064129 4.78119883 12 8 C11.67 8.66 11.34 9.32 11 10 C9.68 10 8.36 10 7 10 C6.34 8.68 5.68 7.36 5 6 C4.01 6.33 3.02 6.66 2 7 C2 6.34 2 5.68 2 5 C0.68 4.34 -0.64 3.68 -2 3 C-1.34 2.01 -0.68 1.02 0 0 Z " fill="#B1AFAF" transform="translate(125,361)"/>
<path d="M0 0 C0.99 0.33 1.98 0.66 3 1 C3 1.66 3 2.32 3 3 C5.475 3.99 5.475 3.99 8 5 C8 6.65 8 8.3 8 10 C8.66 10 9.32 10 10 10 C10.33 11.65 10.66 13.3 11 15 C0.56064356 4.85891089 0.56064356 4.85891089 0 0 Z " fill="#4070A1" transform="translate(209,166)"/>
<path d="M0 0 C0.66 0 1.32 0 2 0 C2 0.66 2 1.32 2 2 C2.7425 2.0825 3.485 2.165 4.25 2.25 C7.61426412 3.16752658 8.87059621 4.26219512 11 7 C11.75 9.75 11.75 9.75 12 12 C11.01 11.67 10.02 11.34 9 11 C9 10.34 9 9.68 9 9 C8.34 9 7.68 9 7 9 C7 8.34 7 7.68 7 7 C6.401875 6.773125 5.80375 6.54625 5.1875 6.3125 C2.43648112 4.66188867 1.47515363 2.8027919 0 0 Z " fill="#C0C0C6" transform="translate(58,389)"/>
<path d="M0 0 C0.66 0.33 1.32 0.66 2 1 C0.68 2.32 -0.64 3.64 -2 5 C-1.34 6.65 -0.68 8.3 0 10 C-0.99 10.99 -1.98 11.98 -3 13 C-3 12.01 -3 11.02 -3 10 C-3.66 10 -4.32 10 -5 10 C-5.33 10.99 -5.66 11.98 -6 13 C-6.99 12.01 -7.98 11.02 -9 10 C-6.03 6.7 -3.06 3.4 0 0 Z " fill="#ACABAB" transform="translate(63,114)"/>
<path d="M0 0 C6.625 -0.25 6.625 -0.25 10 2 C10 3.32 10 4.64 10 6 C10.99 5.67 11.98 5.34 13 5 C13 5.99 13 6.98 13 8 C7.73691968 6.58795406 4.2437012 4.31008693 0 1 C0 0.67 0 0.34 0 0 Z " fill="#DBD9D8" transform="translate(93,419)"/>
<path d="M0 0 C0.33 0 0.66 0 1 0 C1.19412181 1.47831221 1.38012131 2.95769316 1.5625 4.4375 C1.66691406 5.26121094 1.77132813 6.08492188 1.87890625 6.93359375 C1.91886719 7.61550781 1.95882813 8.29742187 2 9 C1.67 9.33 1.34 9.66 1 10 C0.76924918 11.34747084 0.58846937 12.70377565 0.4375 14.0625 C0.2209375 16.0115625 0.2209375 16.0115625 0 18 C-0.33 18 -0.66 18 -1 18 C-2.19088986 12.61972975 -3.2919519 7.54708616 -3 2 C-2.34 2 -1.68 2 -1 2 C-0.67 1.34 -0.34 0.68 0 0 Z " fill="#B2B6BA" transform="translate(8,272)"/>
<path d="M0 0 C0.33 0 0.66 0 1 0 C1.06058594 0.74765625 1.12117188 1.4953125 1.18359375 2.265625 C1.26738281 3.25046875 1.35117187 4.2353125 1.4375 5.25 C1.51871094 6.22453125 1.59992188 7.1990625 1.68359375 8.203125 C1.95143355 10.57069658 2.41534527 12.70068561 3 15 C3 15.99 3 16.98 3 18 C3.66 18 4.32 18 5 18 C5.33 19.32 5.66 20.64 6 22 C5.34 22 4.68 22 4 22 C3.67 22.99 3.34 23.98 3 25 C-0.58231402 16.64126728 -0.29551415 8.92014943 0 0 Z " fill="#6462A4" transform="translate(396,126)"/>
<path d="M0 0 C3.6739599 3.37607126 6.05406554 6.39120786 8 11 C8 11.66 8 12.32 8 13 C6.0625 12.3125 6.0625 12.3125 4 11 C3.25 8.375 3.25 8.375 3 6 C1.35 5.67 -0.3 5.34 -2 5 C-1.34 3.35 -0.68 1.7 0 0 Z " fill="#926BB7" transform="translate(450,90)"/>
<path d="M0 0 C1.125 3.75 1.125 3.75 0 6 C0.66 6.33 1.32 6.66 2 7 C1.67 8.98 1.34 10.96 1 13 C0.34 13 -0.32 13 -1 13 C-1.33 13.66 -1.66 14.32 -2 15 C-3.32142862 8.88839265 -2.5997248 5.74105893 0 0 Z " fill="#9D72D7" transform="translate(446,151)"/>
<path d="M0 0 C0.66 1.32 1.32 2.64 2 4 C2.42539062 4.82757813 2.85078125 5.65515625 3.2890625 6.5078125 C3.72992188 7.37148437 4.17078125 8.23515625 4.625 9.125 C5.07101562 9.99382812 5.51703125 10.86265625 5.9765625 11.7578125 C7 14 7 14 7 16 C5.35 15.67 3.7 15.34 2 15 C2 13.35 2 11.7 2 10 C1.34 9.67 0.68 9.34 0 9 C0 6.03 0 3.06 0 0 Z " fill="#6F75B5" transform="translate(386,144)"/>
<path d="M0 0 C2.25 -0.25 2.25 -0.25 5 0 C7.3125 1.875 7.3125 1.875 9 4 C9 4.66 9 5.32 9 6 C8.34 6 7.68 6 7 6 C7 6.66 7 7.32 7 8 C7.99 8 8.98 8 10 8 C9.34 9.32 8.68 10.64 8 12 C6.66382103 10.18959679 5.33112616 8.3766216 4 6.5625 C3.2575 5.55316406 2.515 4.54382813 1.75 3.50390625 C0 1 0 1 0 0 Z " fill="#C6C5C5" transform="translate(454,85)"/>
<path d="M0 0 C-0.2475 0.7425 -0.495 1.485 -0.75 2.25 C-0.8325 3.1575 -0.915 4.065 -1 5 C0.83358335 7.33454661 0.83358335 7.33454661 3 9 C-0.99500618 7.6302836 -3.80009492 5.74277578 -7 3 C-6.67 2.01 -6.34 1.02 -6 0 C-3.50907189 -1.24546405 -2.58919267 -0.7767578 0 0 Z " fill="#A09E9F" transform="translate(443,68)"/>
<path d="M0 0 C0.66 1.32 1.32 2.64 2 4 C0.54550599 5.0055761 -0.91372443 6.00430435 -2.375 7 C-3.59316406 7.8353125 -3.59316406 7.8353125 -4.8359375 8.6875 C-7 10 -7 10 -9 10 C-9 7 -9 7 -7 5 C-6.360625 4.87625 -5.72125 4.7525 -5.0625 4.625 C-2.31760397 3.79321332 -1.52116383 2.35780394 0 0 Z " fill="#886CAF" transform="translate(444,179)"/>
<path d="M0 0 C2.31623708 2.26650193 4.48633273 4.62805959 6.625 7.0625 C7.23601562 7.75472656 7.84703125 8.44695312 8.4765625 9.16015625 C10 11 10 11 11 13 C8.03 12.505 8.03 12.505 5 12 C5 11.01 5 10.02 5 9 C3.68 8.67 2.36 8.34 1 8 C0.67 5.36 0.34 2.72 0 0 Z " fill="#7864A8" transform="translate(375,174)"/>
<path d="M0 0 C0.33 0 0.66 0 1 0 C3.11161731 11.52164009 3.11161731 11.52164009 4 17 C3.01 17.33 2.02 17.66 1 18 C-1.3548854 11.76647981 -0.87557031 6.54311329 0 0 Z " fill="#7B69AD" transform="translate(363,140)"/>
<path d="M0 0 C0 0.99 0 1.98 0 3 C-4.29 3 -8.58 3 -13 3 C-13 2.34 -13 1.68 -13 1 C-4.57142857 -1.42857143 -4.57142857 -1.42857143 0 0 Z " fill="#766AA5" transform="translate(424,191)"/>
<path d="M0 0 C6.20104812 -0.27560214 11.93184478 0.77100654 18 2 C18 2.33 18 2.66 18 3 C17.19175781 2.98839844 16.38351563 2.97679687 15.55078125 2.96484375 C13.94783203 2.95130859 13.94783203 2.95130859 12.3125 2.9375 C11.25675781 2.92589844 10.20101562 2.91429687 9.11328125 2.90234375 C6.27589738 2.99134575 3.7561081 3.35060162 1 4 C0.67 2.68 0.34 1.36 0 0 Z " fill="#B2B0AF" transform="translate(170,384)"/>
<path d="M0 0 C1.65 0 3.3 0 5 0 C5 0.66 5 1.32 5 2 C5.66 2 6.32 2 7 2 C7 2.99 7 3.98 7 5 C8.94009522 6.70532323 8.94009522 6.70532323 11 8 C10.01 8.33 9.02 8.66 8 9 C5.95703125 7.63671875 5.95703125 7.63671875 3.8125 5.6875 C2.73935547 4.73423828 2.73935547 4.73423828 1.64453125 3.76171875 C0 2 0 2 0 0 Z " fill="#686BB6" transform="translate(384,176)"/>
<path d="M0 0 C1.50433594 0.01353516 1.50433594 0.01353516 3.0390625 0.02734375 C3.80992187 0.03894531 4.58078125 0.05054688 5.375 0.0625 C5.375 0.3925 5.375 0.7225 5.375 1.0625 C4.41787109 1.15337891 4.41787109 1.15337891 3.44140625 1.24609375 C2.61511719 1.32988281 1.78882813 1.41367188 0.9375 1.5 C-0.29806641 1.62181641 -0.29806641 1.62181641 -1.55859375 1.74609375 C-3.61162025 1.85180815 -3.61162025 1.85180815 -4.625 3.0625 C-4.90601946 5.38202569 -5.07282625 7.70135514 -5.24609375 10.03125 C-5.37113281 10.7015625 -5.49617187 11.371875 -5.625 12.0625 C-6.615 12.5575 -6.615 12.5575 -7.625 13.0625 C-7.625 9.1025 -7.625 5.1425 -7.625 1.0625 C-4.98041621 -0.25979189 -2.94738699 -0.03427194 0 0 Z " fill="#349ADB" transform="translate(211.625,134.9375)"/>
<path d="M0 0 C3.74281699 2.38179263 6.97727468 4.74475735 10 8 C6.88772805 8 4.05847848 7.54372951 1 7 C0.67 4.69 0.34 2.38 0 0 Z " fill="#806BB2" transform="translate(437,78)"/>
<path d="M0 0 C0.33 0 0.66 0 1 0 C1.33 7.59 1.66 15.18 2 23 C1.67 22.01 1.34 21.02 1 20 C0.01 20 -0.98 20 -2 20 C-2 19.01 -2 18.02 -2 17 C-1.34 17 -0.68 17 0 17 C0 11.39 0 5.78 0 0 Z " fill="#969698" transform="translate(71,255)"/>
<path d="M0 0 C0.66 0.33 1.32 0.66 2 1 C0.16508812 5.74018901 -1.91941459 10.36413251 -4 15 C-5.21405922 11.50448721 -4.777272 9.30906703 -3.6875 5.8125 C-3.42324219 4.93207031 -3.15898438 4.05164063 -2.88671875 3.14453125 C-2 1 -2 1 0 0 Z " fill="#B2B0B3" transform="translate(87,188)"/>
<path d="M0 0 C3.75376152 1.25125384 4.24073289 2.5652404 6 6 C6 6.66 6 7.32 6 8 C3.69 8 1.38 8 -1 8 C-1.125 2.25 -1.125 2.25 0 0 Z " fill="#9B78E0" transform="translate(377,182)"/>
<path d="M0 0 C-0.33 1.65 -0.66 3.3 -1 5 C-3.31 5.66 -5.62 6.32 -8 7 C-8 4 -8 4 -6.6875 2.375 C-4.55183556 0.63482898 -2.75958004 0 0 0 Z " fill="#8380C0" transform="translate(409,110)"/>
<path d="M0 0 C0.33 1.32 0.66 2.64 1 4 C1.495 3.835 1.99 3.67 2.5 3.5 C6.03444089 2.79311182 9.39690701 2.93994845 13 3 C13 4.32 13 5.64 13 7 C8.38 6.34 3.76 5.68 -1 5 C-0.67 3.35 -0.34 1.7 0 0 Z " fill="#615B94" transform="translate(415,87)"/>
<path d="M0 0 C0.66 0.33 1.32 0.66 2 1 C1.67 1.33 1.34 1.66 1 2 C1.66 2.66 2.32 3.32 3 4 C1.25531628 4.70088156 -0.49601161 5.38524009 -2.25 6.0625 C-3.22453125 6.44535156 -4.1990625 6.82820313 -5.203125 7.22265625 C-8.04007395 8.01113787 -9.29409552 8.02437812 -12 7 C-11.21753906 6.57847656 -10.43507813 6.15695312 -9.62890625 5.72265625 C-8.61699219 5.17480469 -7.60507812 4.62695312 -6.5625 4.0625 C-5.55316406 3.51722656 -4.54382813 2.97195313 -3.50390625 2.41015625 C-1.13329507 1.22300532 -1.13329507 1.22300532 0 0 Z " fill="#A4A7AB" transform="translate(273,367)"/>
<path d="M0 0 C1.32 0.33 2.64 0.66 4 1 C1.6892779 8.5273523 1.6892779 8.5273523 -1.1875 10.5 C-1.785625 10.665 -2.38375 10.83 -3 11 C-3 8.04725901 -2.56108169 6.50941597 -1.5 3.8125 C-1.2215625 3.09707031 -0.943125 2.38164062 -0.65625 1.64453125 C-0.33140625 0.83048828 -0.33140625 0.83048828 0 0 Z " fill="#AB85D5" transform="translate(449,147)"/>
<path d="M0 0 C2.33965571 2.22723982 4.27099166 4.58956647 6.1875 7.1875 C6.71730469 7.90292969 7.24710938 8.61835938 7.79296875 9.35546875 C8.39044922 10.16951172 8.39044922 10.16951172 9 11 C8.67 11.66 8.34 12.32 8 13 C5.30274481 11.11192137 3.86783571 9.80175356 2 7 C1.01 6.34 0.02 5.68 -1 5 C-0.67 3.35 -0.34 1.7 0 0 Z " fill="#B4B5B6" transform="translate(90,323)"/>
<path d="M0 0 C-0.99 0.33 -1.98 0.66 -3 1 C-3.33 1.99 -3.66 2.98 -4 4 C-4.99 4.33 -5.98 4.66 -7 5 C-7.66 4.34 -8.32 3.68 -9 3 C-10.98821313 2.60235737 -12.98944339 2.26224651 -15 2 C-15 1.67 -15 1.34 -15 1 C-9.91913204 0.15318867 -5.15171623 -0.09038099 0 0 Z " fill="#BFBFC1" transform="translate(228,386)"/>
<path d="M0 0 C2.28062828 3.42094242 2.21925007 4.68187222 2.125 8.6875 C2.10695313 9.68136719 2.08890625 10.67523438 2.0703125 11.69921875 C2.03550781 12.83810547 2.03550781 12.83810547 2 14 C1.01 13.34 0.02 12.68 -1 12 C-1.3148325 7.82846941 -0.98386923 4.05846056 0 0 Z " fill="#CBCCCA" transform="translate(73,278)"/>
<path d="M0 0 C0.75 1.6875 0.75 1.6875 1 4 C-0.625 6.75 -0.625 6.75 -3 9 C-5.75 9.3125 -5.75 9.3125 -8 9 C-6.625 7 -6.625 7 -5 5 C-4.34 5 -3.68 5 -3 5 C-2.690625 4.360625 -2.38125 3.72125 -2.0625 3.0625 C-1 1 -1 1 0 0 Z " fill="#8068AF" transform="translate(441,161)"/>
<path d="M0 0 C0.12375 0.5775 0.2475 1.155 0.375 1.75 C1.00648824 4.02335767 1.88858191 5.9253529 3 8 C2.01 9.485 2.01 9.485 1 11 C0.01 11 -0.98 11 -2 11 C-2.19622241 6.78121808 -1.80230168 3.82989106 0 0 Z " fill="#7F7CC1" transform="translate(399,117)"/>
<path d="M0 0 C-1.65 0.66 -3.3 1.32 -5 2 C-5 2.66 -5 3.32 -5 4 C-9.62 4 -14.24 4 -19 4 C-19 3.67 -19 3.34 -19 3 C-16.586238 2.30048937 -14.16989766 1.61516081 -11.75 0.9375 C-11.06808594 0.73833984 -10.38617188 0.53917969 -9.68359375 0.33398438 C-3.41657839 -1.40009269 -3.41657839 -1.40009269 0 0 Z " fill="#939295" transform="translate(159,64)"/>
<path d="M0 0 C0.99 0 1.98 0 3 0 C3.33 1.98 3.66 3.96 4 6 C3.34 6 2.68 6 2 6 C1.67 6.99 1.34 7.98 1 9 C0.67 9 0.34 9 0 9 C0 7.35 0 5.7 0 4 C-0.66 3.67 -1.32 3.34 -2 3 C-1.34 2.01 -0.68 1.02 0 0 Z " fill="#B77EDC" transform="translate(459,145)"/>
<path d="M0 0 C0.66 0 1.32 0 2 0 C2.32374517 5.50366792 2.53286034 9.43672206 -1 14 C-2.13732426 10.59598052 -1.83989957 8.22543336 -1.0625 4.75 C-0.86785156 3.85796875 -0.67320312 2.9659375 -0.47265625 2.046875 C-0.31667969 1.37140625 -0.16070312 0.6959375 0 0 Z " fill="#8E6EA8" transform="translate(449,137)"/>
<path d="M0 0 C0.79921875 0.01804688 1.5984375 0.03609375 2.421875 0.0546875 C3.02515625 0.07789063 3.6284375 0.10109375 4.25 0.125 C4.25 2.105 4.25 4.085 4.25 6.125 C3.59 5.795 2.93 5.465 2.25 5.125 C2.25 4.465 2.25 3.805 2.25 3.125 C-1.38 2.795 -5.01 2.465 -8.75 2.125 C-5.00631258 0.25315629 -3.9099209 -0.11499767 0 0 Z " fill="#9389D5" transform="translate(357.75,131.875)"/>
<path d="M0 0 C0.99 0.33 1.98 0.66 3 1 C0.36 4.3 -2.28 7.6 -5 11 C-5.66 9.68 -6.32 8.36 -7 7 C-5.68 6.67 -4.36 6.34 -3 6 C-3 5.34 -3 4.68 -3 4 C-2.34 4 -1.68 4 -1 4 C-0.67 2.68 -0.34 1.36 0 0 Z " fill="#B5B3B4" transform="translate(360,374)"/>
<path d="M0 0 C-0.66 0 -1.32 0 -2 0 C-2 0.99 -2 1.98 -2 3 C-3.4562672 3.36256858 -4.91511185 3.71479793 -6.375 4.0625 C-7.59316406 4.35833984 -7.59316406 4.35833984 -8.8359375 4.66015625 C-11 5 -11 5 -13 4 C-11.59248779 3.13083113 -10.1735479 2.28014851 -8.75 1.4375 C-7.96109375 0.96183594 -7.1721875 0.48617187 -6.359375 -0.00390625 C-3.69155375 -1.13022151 -2.65498232 -1.0169313 0 0 Z " fill="#ACABAB" transform="translate(239,243)"/>
<path d="M0 0 C1.65 0 3.3 0 5 0 C4.04737966 1.48285242 3.08771595 2.96118201 2.125 4.4375 C1.59132813 5.26121094 1.05765625 6.08492187 0.5078125 6.93359375 C-1 9 -1 9 -3 10 C-3 8.35 -3 6.7 -3 5 C-2.34 5 -1.68 5 -1 5 C-0.67 3.35 -0.34 1.7 0 0 Z " fill="#A9A8A9" transform="translate(98,170)"/>
<path d="M0 0 C2.97 0.33 5.94 0.66 9 1 C6.2403139 2.83979073 4.70258118 3.48323221 1.5625 4.1875 C0.80066406 4.36667969 0.03882813 4.54585937 -0.74609375 4.73046875 C-3.12958496 5.0154963 -4.73104204 4.72875415 -7 4 C-6.030625 3.71125 -5.06125 3.4225 -4.0625 3.125 C-0.89335797 2.35785318 -0.89335797 2.35785318 0 0 Z " fill="#9D9C9D" transform="translate(172,124)"/>
<path d="M0 0 C0.66 0.33 1.32 0.66 2 1 C-2.93654267 8.68490153 -2.93654267 8.68490153 -7.375 10 C-8.24125 10 -9.1075 10 -10 10 C-6.66666667 6.66666667 -3.33333333 3.33333333 0 0 Z " fill="#9C9C9D" transform="translate(79,100)"/>
<path d="M0 0 C0.99 0.66 1.98 1.32 3 2 C0.03 4.31 -2.94 6.62 -6 9 C-6.66 7.68 -7.32 6.36 -8 5 C-3.375 2 -3.375 2 0 2 C0 1.34 0 0.68 0 0 Z " fill="#B0AEAE" transform="translate(328,407)"/>
<path d="M0 0 C0.33 0 0.66 0 1 0 C1.41694996 1.59880813 1.80790856 3.20441261 2.1875 4.8125 C2.40792969 5.70582031 2.62835937 6.59914062 2.85546875 7.51953125 C3 10 3 10 1.67578125 11.82421875 C0 13 0 13 -2 13 C-1.855625 12.154375 -1.71125 11.30875 -1.5625 10.4375 C-0.9941203 6.96406851 -0.48797607 3.48554338 0 0 Z " fill="#B7B5B8" transform="translate(11,202)"/>
<path d="M0 0 C2 3 2 3 2 5 C1.34 5 0.68 5 0 5 C-0.2475 5.61875 -0.495 6.2375 -0.75 6.875 C-2.20628639 9.35068687 -3.37812506 9.95125002 -6 11 C-6.33 9.68 -6.66 8.36 -7 7 C-5.02 6.67 -3.04 6.34 -1 6 C-1.020625 5.195625 -1.04125 4.39125 -1.0625 3.5625 C-1 1 -1 1 0 0 Z " fill="#8365A9" transform="translate(433,150)"/>
<path d="M0 0 C0 0.66 0 1.32 0 2 C-2.90548882 4.04169485 -4.40142046 5 -8 5 C-8 5.99 -8 6.98 -8 8 C-9.65 7.67 -11.3 7.34 -13 7 C-11.60643954 4.21287908 -9.83494327 3.73536671 -7.0625 2.375 C-6.16660156 1.92898437 -5.27070312 1.48296875 -4.34765625 1.0234375 C-2 0 -2 0 0 0 Z " fill="#AAA9A9" transform="translate(118,77)"/>
<path d="M0 0 C-3 2 -3 2 -6 3 C-6.33 3.99 -6.66 4.98 -7 6 C-10 5 -10 5 -13 3 C-8.37802694 0.78145293 -5.23175837 -0.38281159 0 0 Z " fill="#9D9CA1" transform="translate(461,61)"/>
<path d="M0 0 C3.63 0.33 7.26 0.66 11 1 C10.67 1.99 10.34 2.98 10 4 C10.66 4 11.32 4 12 4 C12 4.66 12 5.32 12 6 C7.76570244 4.68938409 3.92592596 3.05643741 0 1 C0 0.67 0 0.34 0 0 Z " fill="#A6A7AE" transform="translate(113,431)"/>
<path d="M0 0 C1.65 0 3.3 0 5 0 C5 0.66 5 1.32 5 2 C4.34 2 3.68 2 3 2 C2.7525 2.598125 2.505 3.19625 2.25 3.8125 C0.83629988 6.28647521 -0.65055383 7.43370255 -3 9 C-3 7.68 -3 6.36 -3 5 C-2.01 5 -1.02 5 0 5 C0 3.35 0 1.7 0 0 Z " fill="#B2B2B4" transform="translate(348,386)"/>
<path d="M0 0 C0 0.33 0 0.66 0 1 C-0.72445313 1.03738281 -1.44890625 1.07476562 -2.1953125 1.11328125 C-7.88363826 1.5000874 -11.95624042 2.15480229 -17 5 C-17.66 4.67 -18.32 4.34 -19 4 C-13.30650278 -1.20548317 -7.39364896 -0.394913 0 0 Z " fill="#434474" transform="translate(424,106)"/>
<path d="M0 0 C1.2065625 0.0309375 1.2065625 0.0309375 2.4375 0.0625 C-3.25870253 4.80933544 -3.25870253 4.80933544 -6.5625 6.0625 C-7.2225 5.7325 -7.8825 5.4025 -8.5625 5.0625 C-8.5625 4.4025 -8.5625 3.7425 -8.5625 3.0625 C-7.758125 2.753125 -6.95375 2.44375 -6.125 2.125 C-1.0625 0.02591463 -1.0625 0.02591463 0 0 Z " fill="#B7B6B5" transform="translate(316.5625,416.9375)"/>
<path d="M0 0 C0.99 0.33 1.98 0.66 3 1 C3 1.66 3 2.32 3 3 C3.66 3 4.32 3 5 3 C5 3.66 5 4.32 5 5 C5.9590625 5.433125 5.9590625 5.433125 6.9375 5.875 C9 7 9 7 10 9 C5.52599758 9.36275695 5.52599758 9.36275695 3.1875 7.75 C2 6 2 6 2 2 C1.34 2 0.68 2 0 2 C0 1.34 0 0.68 0 0 Z " fill="#A4A2AC" transform="translate(113,351)"/>
<path d="M0 0 C0.33 0.66 0.66 1.32 1 2 C1.99 2.33 2.98 2.66 4 3 C3.67 4.32 3.34 5.64 3 7 C3.66 7 4.32 7 5 7 C5 7.99 5 8.98 5 10 C5.66 10.33 6.32 10.66 7 11 C6.34 11 5.68 11 5 11 C4.67 11.99 4.34 12.98 4 14 C3.32739649 12.23141309 2.66211605 10.46003984 2 8.6875 C1.62875 7.70136719 1.2575 6.71523438 0.875 5.69921875 C0 3 0 3 0 0 Z " fill="#A8A9AA" transform="translate(16,320)"/>
<path d="M0 0 C2.475 0.495 2.475 0.495 5 1 C5.93423645 4.01031744 6.04449911 4.86650268 5 8 C0 2.25 0 2.25 0 0 Z " fill="#6F74B9" transform="translate(378,168)"/>
<path d="M0 0 C0 1.32 0 2.64 0 4 C-3.465 5.485 -3.465 5.485 -7 7 C-7 5.68 -7 4.36 -7 3 C-2.92857143 0 -2.92857143 0 0 0 Z " fill="#9F71D8" transform="translate(432,152)"/>
<path d="M0 0 C1.953125 0.7109375 1.953125 0.7109375 4 2 C4.609375 4.1640625 4.609375 4.1640625 4.75 6.625 C4.80671875 7.44226563 4.8634375 8.25953125 4.921875 9.1015625 C4.94765625 9.72804688 4.9734375 10.35453125 5 11 C3.68 11.33 2.36 11.66 1 12 C1.18433594 11.42765625 1.36867188 10.8553125 1.55859375 10.265625 C2.05605939 7.71226153 1.76634248 6.23414994 1.0625 3.75 C0.711875 2.5125 0.36125 1.275 0 0 Z " fill="#B27DD4" transform="translate(454,101)"/>
<path d="M0 0 C-1 1.5 -1 1.5 -3 3 C-5.71846235 3.27345479 -8.25677199 3.13491285 -11 3 C-11 3.99 -11 4.98 -11 6 C-11.66 6 -12.32 6 -13 6 C-13 4.68 -13 3.36 -13 2 C-8.46298506 0.54815522 -4.81938524 -0.23509196 0 0 Z " fill="#CFCECC" transform="translate(435,64)"/>
<path d="M0 0 C2.45234885 0.98093954 3.7809268 1.68703828 5.3125 3.875 C6.1132654 6.35009306 5.86325845 7.58287634 5 10 C2.66063182 7.87330165 1.19346152 5.93775144 0 3 C0 2.01 0 1.02 0 0 Z " fill="#AEAEB2" transform="translate(26,343)"/>
<path d="M0 0 C6.875 1.875 6.875 1.875 8 3 C10.32817964 3.36760731 12.6618385 3.70241581 15 4 C15 4.33 15 4.66 15 5 C9.88081854 5.1765235 5.75016635 5.2012966 1 3 C0.67 2.01 0.34 1.02 0 0 Z " fill="#4F7CA2" transform="translate(234,188)"/>
<path d="M0 0 C0.33 0.66 0.66 1.32 1 2 C1.66 2.33 2.32 2.66 3 3 C2.0409375 4.1446875 2.0409375 4.1446875 1.0625 5.3125 C-1.14232781 7.88246713 -1.14232781 7.88246713 -2 11 C-2.66 11 -3.32 11 -4 11 C-3.5247412 9.35303396 -3.04468109 7.70745272 -2.5625 6.0625 C-2.29566406 5.14597656 -2.02882813 4.22945312 -1.75390625 3.28515625 C-1 1 -1 1 0 0 Z " fill="#A7A6A5" transform="translate(17,186)"/>
<path d="M0 0 C0.33 1.65 0.66 3.3 1 5 C-1.375 5.625 -1.375 5.625 -4 6 C-4.66 5.34 -5.32 4.68 -6 4 C-2.25 0 -2.25 0 0 0 Z " fill="#7B69A2" transform="translate(438,121)"/>
<path d="M0 0 C1.98 0.495 1.98 0.495 4 1 C3.67 1.66 3.34 2.32 3 3 C2.9310528 4.37342831 2.91532292 5.75002102 2.9375 7.125 C2.958125 8.40375 2.97875 9.6825 3 11 C2.01 11.33 1.02 11.66 0 12 C-0.33 11.01 -0.66 10.02 -1 9 C-0.34 9 0.32 9 1 9 C0.67 6.03 0.34 3.06 0 0 Z " fill="#6F599F" transform="translate(421,112)"/>
<path d="M0 0 C2.0625 0.4375 2.0625 0.4375 4 1 C2.55746343 4.36591866 0.66735273 6.51047079 -2 9 C-2 7.68 -2 6.36 -2 5 C-1.34 5 -0.68 5 0 5 C-0.2784375 4.0409375 -0.2784375 4.0409375 -0.5625 3.0625 C-0.7790625 2.0415625 -0.7790625 2.0415625 -1 1 C-0.67 0.67 -0.34 0.34 0 0 Z " fill="#B2B1B3" transform="translate(394,94)"/>
<path d="M0 0 C1.9375 0.8125 1.9375 0.8125 4 2 C4.33 2.99 4.66 3.98 5 5 C4.67 5.66 4.34 6.32 4 7 C3.34 7 2.68 7 2 7 C2 6.34 2 5.68 2 5 C-0.475 4.01 -0.475 4.01 -3 3 C-2.01 2.01 -1.02 1.02 0 0 Z " fill="#B9B9BD" transform="translate(78,404)"/>
<path d="M0 0 C3.48331435 3.01887244 4.79157144 5.56909529 6 10 C4.68 9.34 3.36 8.68 2 8 C2 7.34 2 6.68 2 6 C1.01 6.33 0.02 6.66 -1 7 C-0.67 4.69 -0.34 2.38 0 0 Z " fill="#B6B4B6" transform="translate(84,313)"/>
<path d="M0 0 C0.66 0.33 1.32 0.66 2 1 C2.40729228 3.32156597 2.74438677 5.6568787 3 8 C2.01 8.495 2.01 8.495 1 9 C0.67 8.01 0.34 7.02 0 6 C-0.66 5.67 -1.32 5.34 -2 5 C-1.125 1.125 -1.125 1.125 0 0 Z " fill="#9E7CCE" transform="translate(373,171)"/>
<path d="M0 0 C0.33 0 0.66 0 1 0 C1 1.65 1 3.3 1 5 C-0.32 5.33 -1.64 5.66 -3 6 C-3.12375 6.639375 -3.2475 7.27875 -3.375 7.9375 C-3.58125 8.618125 -3.7875 9.29875 -4 10 C-4.99 10.495 -4.99 10.495 -6 11 C-4.74527195 6.50389116 -3.1520343 3.45706988 0 0 Z " fill="#A09F9D" transform="translate(39,144)"/>
<path d="M0 0 C-0.33 0.99 -0.66 1.98 -1 3 C-4.93670488 4.31223496 -7.12488144 3.24296256 -11 2 C-11 1.67 -11 1.34 -11 1 C-7.27569643 0.30710631 -3.78916254 -0.11144596 0 0 Z " fill="#AA85D7" transform="translate(437,126)"/>
<path d="M0 0 C0.66 0 1.32 0 2 0 C2 0.66 2 1.32 2 2 C2.66 2.33 3.32 2.66 4 3 C0.33708062 5.47785723 -2.6109185 6.48964169 -7 7 C-6.67 6.01 -6.34 5.02 -6 4 C-4.68 4 -3.36 4 -2 4 C-1.34 2.68 -0.68 1.36 0 0 Z " fill="#A09EA2" transform="translate(370,114)"/>
<path d="M0 0 C0.99 0.66 1.98 1.32 3 2 C3 4.62113708 2.68707555 6.50935112 2 9 C1.34 8.67 0.68 8.34 0 8 C0 7.01 0 6.02 0 5 C-0.66 5 -1.32 5 -2 5 C-1.34 3.35 -0.68 1.7 0 0 Z " fill="#F5F4F0" transform="translate(21,322)"/>
<path d="M0 0 C0 1.32 0 2.64 0 4 C-0.99 3.67 -1.98 3.34 -3 3 C-3.99 4.32 -4.98 5.64 -6 7 C-6.99 6.34 -7.98 5.68 -9 5 C-3.375 0 -3.375 0 0 0 Z " fill="#A57AD4" transform="translate(447,177)"/>
<path d="M0 0 C1.32 0.33 2.64 0.66 4 1 C4 3.64 4 6.28 4 9 C3.34 9 2.68 9 2 9 C2 7.68 2 6.36 2 5 C1.34 5 0.68 5 0 5 C0 3.35 0 1.7 0 0 Z " fill="#B585DC" transform="translate(435,135)"/>
<path d="M0 0 C0 2.64 0 5.28 0 8 C-0.33 8 -0.66 8 -1 8 C-1.144375 7.21625 -1.28875 6.4325 -1.4375 5.625 C-1.87798925 3.03578982 -1.87798925 3.03578982 -3 1 C-5.31 1 -7.62 1 -10 1 C-10 0.67 -10 0.34 -10 0 C-6.30458414 -0.95024979 -3.69541586 -0.95024979 0 0 Z " fill="#605B93" transform="translate(363,131)"/>
<path d="M0 0 C0.33 0.66 0.66 1.32 1 2 C0.67 2.66 0.34 3.32 0 4 C0.66 4.33 1.32 4.66 2 5 C-0.35953094 7.35953094 -1.77895617 7.49141413 -5 8 C-3.62845496 5.04590299 -2.01136276 2.55991624 0 0 Z " fill="#B3B3B5" transform="translate(53,125)"/>
<path d="M0 0 C0.99 0.66 1.98 1.32 3 2 C0.69 4.31 -1.62 6.62 -4 9 C-5 6 -5 6 -4 3 C-2.68 3 -1.36 3 0 3 C0 2.01 0 1.02 0 0 Z " fill="#B1AFB3" transform="translate(410,78)"/>
<path d="M0 0 C-1.59766103 0.86627399 -3.20339944 1.71766465 -4.8125 2.5625 C-5.70582031 3.03816406 -6.59914063 3.51382812 -7.51953125 4.00390625 C-10 5 -10 5 -13 4 C-12.34 4 -11.68 4 -11 4 C-10.67 3.01 -10.34 2.02 -10 1 C-9.01 1.33 -8.02 1.66 -7 2 C-7 1.34 -7 0.68 -7 0 C-2.25 -1.125 -2.25 -1.125 0 0 Z " fill="#94959B" transform="translate(291,434)"/>
<path d="M0 0 C0.33 0.99 0.66 1.98 1 3 C0.401875 3.0825 -0.19625 3.165 -0.8125 3.25 C-3.5966296 4.20455872 -4.43311142 5.57132271 -6 8 C-6.33 6.68 -6.66 5.36 -7 4 C-4.69 2.68 -2.38 1.36 0 0 Z " fill="#BCBBBC" transform="translate(225,248)"/>
<path d="M0 0 C0.33 0 0.66 0 1 0 C1.33 2.31 1.66 4.62 2 7 C1.34 7 0.68 7 0 7 C-0.33 9.64 -0.66 12.28 -1 15 C-1.33 15 -1.66 15 -2 15 C-1.85816304 13.24967156 -1.71136571 11.49974466 -1.5625 9.75 C-1.48128906 8.77546875 -1.40007813 7.8009375 -1.31640625 6.796875 C-1.04925416 4.43538247 -0.64628032 2.28098935 0 0 Z " fill="#959698" transform="translate(8,217)"/>
<path d="M0 0 C0.99 0.33 1.98 0.66 3 1 C2 3 1 5 0 7 C-0.66 7 -1.32 7 -2 7 C-2.33 7.66 -2.66 8.32 -3 9 C-3.1875 6.625 -3.1875 6.625 -3 4 C-2.01 3.34 -1.02 2.68 0 2 C0 1.34 0 0.68 0 0 Z " fill="#7D5BA2" transform="translate(450,172)"/>
<path d="M0 0 C2.86724686 0.57344937 3.8614515 0.8614515 6 3 C5.01 4.485 5.01 4.485 4 6 C3.34 6 2.68 6 2 6 C0.375 4 0.375 4 -1 2 C-0.67 1.34 -0.34 0.68 0 0 Z " fill="#4395D5" transform="translate(210,163)"/>
<path d="M0 0 C0.99 0.33 1.98 0.66 3 1 C3.19622241 5.21878192 2.80230168 8.17010894 1 12 C0.67 12 0.34 12 0 12 C0 8.04 0 4.08 0 0 Z " fill="#8A84DC" transform="translate(397,128)"/>
<path d="M0 0 C0.144375 0.598125 0.28875 1.19625 0.4375 1.8125 C0.8872439 3.56150404 1.42892341 5.28677023 2 7 C1.34 7 0.68 7 0 7 C0 7.66 0 8.32 0 9 C-0.99 9.33 -1.98 9.66 -3 10 C-2.39009109 6.44219804 -1.4216319 3.3171411 0 0 Z " fill="#A2A3A9" transform="translate(206,269)"/>
<path d="M0 0 C0 0.66 0 1.32 0 2 C-1.45635371 2.22174933 -2.91522956 2.42698698 -4.375 2.625 C-5.18710937 2.74101562 -5.99921875 2.85703125 -6.8359375 2.9765625 C-7.55007813 2.98429688 -8.26421875 2.99203125 -9 3 C-9.66 2.34 -10.32 1.68 -11 1 C-7.2297564 -1.56376565 -4.32597804 -0.83191885 0 0 Z " fill="#7873BF" transform="translate(407,186)"/>
<path d="M0 0 C-0.33 2.64 -0.66 5.28 -1 8 C-1.66 8 -2.32 8 -3 8 C-3 6.35 -3 4.7 -3 3 C-3.99 2.67 -4.98 2.34 -6 2 C-3 0 -3 0 0 0 Z " fill="#4299D9" transform="translate(220,168)"/>
<path d="M0 0 C2 3 2 3 2 5 C2.99 4.67 3.98 4.34 5 4 C5 5.32 5 6.64 5 8 C2.03 7.505 2.03 7.505 -1 7 C-0.67 4.69 -0.34 2.38 0 0 Z " fill="#9A7CD7" transform="translate(362,153)"/>
<path d="M0 0 C0.66 0.66 1.32 1.32 2 2 C1.01 3.485 1.01 3.485 0 5 C-1.65 4.67 -3.3 4.34 -5 4 C-3 1 -3 1 0 0 Z " fill="#F3F1F1" transform="translate(368,114)"/>
<path d="M0 0 C0 0.66 0 1.32 0 2 C-0.66 2 -1.32 2 -2 2 C-2 2.66 -2 3.32 -2 4 C-2.66 4 -3.32 4 -4 4 C-4.33 4.66 -4.66 5.32 -5 6 C-6.32 5.67 -7.64 5.34 -9 5 C-8.01 4.67 -7.02 4.34 -6 4 C-6 3.34 -6 2.68 -6 2 C-2.25 0 -2.25 0 0 0 Z " fill="#9D9DA0" transform="translate(97,89)"/>
<path d="M0 0 C2.31 0 4.62 0 7 0 C1.85714286 4.42857143 1.85714286 4.42857143 -2 5 C-1.34 3.35 -0.68 1.7 0 0 Z " fill="#D6D1D1" transform="translate(437,59)"/>
<path d="M0 0 C1.32 0.66 2.64 1.32 4 2 C4 2.66 4 3.32 4 4 C-0.625 6.125 -0.625 6.125 -4 5 C-3.525625 4.54625 -3.05125 4.0925 -2.5625 3.625 C-0.90972192 2.06741796 -0.90972192 2.06741796 0 0 Z " fill="#B3B2B5" transform="translate(259,441)"/>
<path d="M0 0 C1.32 0 2.64 0 4 0 C4 0.66 4 1.32 4 2 C4.66 2 5.32 2 6 2 C6 2.66 6 3.32 6 4 C3.69 3.67 1.38 3.34 -1 3 C-0.67 2.01 -0.34 1.02 0 0 Z " fill="#5C9EDC" transform="translate(242,187)"/>
<path d="M0 0 C0.96706319 3.00864103 1.27677226 5.05360248 0 8 C-2.05078125 9.1171875 -2.05078125 9.1171875 -4 10 C-3.52449439 8.51965236 -3.04448784 7.04074979 -2.5625 5.5625 C-2.29566406 4.73878906 -2.02882813 3.91507813 -1.75390625 3.06640625 C-1 1 -1 1 0 0 Z " fill="#9D77D6" transform="translate(443,160)"/>
<path d="M0 0 C0.66 1.32 1.32 2.64 2 4 C1.34 4 0.68 4 0 4 C-0.33 5.32 -0.66 6.64 -1 8 C-1.66 6.68 -2.32 5.36 -3 4 C-2.01 2.68 -1.02 1.36 0 0 Z " fill="#AF7FD5" transform="translate(457,158)"/>
<path d="M0 0 C1.32 0.66 2.64 1.32 4 2 C2.35 3.98 0.7 5.96 -1 8 C-1.33 6.68 -1.66 5.36 -2 4 C-1.01 3.67 -0.02 3.34 1 3 C0.67 2.01 0.34 1.02 0 0 Z " fill="#C0B9BF" transform="translate(401,86)"/>
<path d="M0 0 C0.625 1.875 0.625 1.875 1 4 C-1.22189824 6.22189824 -3.08482708 6.92598892 -6 8 C-4.55746343 4.63408134 -2.66735273 2.48952921 0 0 Z " fill="#5B599A" transform="translate(422,79)"/>
<path d="M0 0 C1.65 0 3.3 0 5 0 C5.33 0.99 5.66 1.98 6 3 C6.99 2.67 7.98 2.34 9 2 C9 2.99 9 3.98 9 5 C5.22454612 3.90931332 2.52956528 3.0916909 0 0 Z " fill="#ABAAAB" transform="translate(97,422)"/>
<path d="M0 0 C0.99 0.33 1.98 0.66 3 1 C1.8141763 4.37503669 0.72426311 6.64722731 -2 9 C-2.33 7.68 -2.66 6.36 -3 5 C-2.01 5 -1.02 5 0 5 C0 3.35 0 1.7 0 0 Z " fill="#A8A8AB" transform="translate(91,180)"/>
<path d="M0 0 C0.33 0 0.66 0 1 0 C0.67 2.97 0.34 5.94 0 9 C-0.99 9.33 -1.98 9.66 -3 10 C-2.67 8.02 -2.34 6.04 -2 4 C-1.34 4 -0.68 4 0 4 C0 2.68 0 1.36 0 0 Z " fill="#9473AE" transform="translate(463,147)"/>
<path d="M0 0 C-2.36292656 2.52588702 -3.66462511 3.88820837 -7 5 C-7 3.68 -7 2.36 -7 1 C-4.53721199 -0.231394 -2.7204945 -0.07159196 0 0 Z " fill="#AFA8AE" transform="translate(129,146)"/>
<path d="M0 0 C1.98 0 3.96 0 6 0 C3.6875 2.5 3.6875 2.5 1 5 C0.01 5 -0.98 5 -2 5 C-1.34 3.35 -0.68 1.7 0 0 Z " fill="#9694DD" transform="translate(401,116)"/>
<path d="M0 0 C0.66 0 1.32 0 2 0 C2 0.66 2 1.32 2 2 C3.65 2.33 5.3 2.66 7 3 C7 3.99 7 4.98 7 6 C6.01 6 5.02 6 4 6 C0 1.54285714 0 1.54285714 0 0 Z " fill="#A0A0A1" transform="translate(58,389)"/>
<path d="M0 0 C3.35595828 0.59927826 5.37801226 1.84622436 8 4 C7.34 4 6.68 4 6 4 C5.67 4.66 5.34 5.32 5 6 C3.35 4.02 1.7 2.04 0 0 Z " fill="#C2C2C6" transform="translate(52,383)"/>
<path d="M0 0 C0.66 0.33 1.32 0.66 2 1 C0.375 3.0625 0.375 3.0625 -2 5 C-5.25 4.75 -5.25 4.75 -8 4 C-5.31143836 2.20762558 -3.0466145 1.01553817 0 0 Z " fill="#8E8E8F" transform="translate(249,379)"/>
<path d="M0 0 C-1.27514492 2.55028983 -2.40341297 2.93081711 -5 4 C-5.99 4 -6.98 4 -8 4 C-8.33 3.01 -8.66 2.02 -9 1 C-5.8035914 -0.06546953 -3.34252724 -0.07427838 0 0 Z " fill="#9B9A9D" transform="translate(143,138)"/>
<path d="M0 0 C1.485 0.99 1.485 0.99 3 2 C4.65549531 2.38499891 6.3222433 2.72793135 8 3 C8 3.33 8 3.66 8 4 C5.36 4.33 2.72 4.66 0 5 C-0.33 4.01 -0.66 3.02 -1 2 C-0.67 1.34 -0.34 0.68 0 0 Z " fill="#735DA3" transform="translate(424,123)"/>
<path d="M0 0 C0.33 0.99 0.66 1.98 1 3 C1.99 3 2.98 3 4 3 C3.67 4.98 3.34 6.96 3 9 C2.67 8.01 2.34 7.02 2 6 C1.34 6 0.68 6 0 6 C0 4.02 0 2.04 0 0 Z " fill="#AE88D5" transform="translate(449,118)"/>
<path d="M0 0 C0.66 0.99 1.32 1.98 2 3 C1.03114628 4.68496298 0.03013277 6.35178756 -1 8 C-1.33 8 -1.66 8 -2 8 C-2.125 5.125 -2.125 5.125 -2 2 C-1.34 1.34 -0.68 0.68 0 0 Z " fill="#B7B6B8" transform="translate(484,113)"/>
<path d="M0 0 C0.33 0.66 0.66 1.32 1 2 C0.34 2 -0.32 2 -1 2 C-1 2.99 -1 3.98 -1 5 C-1.99 5.33 -2.98 5.66 -4 6 C-4.66 5.34 -5.32 4.68 -6 4 C-3.94766315 1.7522025 -2.99332739 0.9977758 0 0 Z " fill="#CDCFCC" transform="translate(71,109)"/>
<path d="M0 0 C1.65 0.33 3.3 0.66 5 1 C3.71034824 2.37562854 2.37310707 3.70766393 1 5 C0.34 5 -0.32 5 -1 5 C-0.67 3.35 -0.34 1.7 0 0 Z " fill="#B8B9BB" transform="translate(379,109)"/>
<path d="M0 0 C0.99 0.33 1.98 0.66 3 1 C3 1.99 3 2.98 3 4 C1.02 4.33 -0.96 4.66 -3 5 C-2.67 4.01 -2.34 3.02 -2 2 C-1.34 2 -0.68 2 0 2 C0 1.34 0 0.68 0 0 Z " fill="#EEEFE9" transform="translate(105,84)"/>
<path d="M0 0 C3.04386724 -0.08226668 5.07175348 0.02391783 8 1 C7.67 1.99 7.34 2.98 7 4 C4.03 3.505 4.03 3.505 1 3 C0.67 2.01 0.34 1.02 0 0 Z " fill="#A389D8" transform="translate(439,85)"/>
<path d="M0 0 C6.46153846 0.46153846 6.46153846 0.46153846 9 3 C5.37 2.67 1.74 2.34 -2 2 C-1.34 1.34 -0.68 0.68 0 0 Z " fill="#565290" transform="translate(427,75)"/>
<path d="M0 0 C3 2 3 2 3.6875 4.625 C3.790625 5.40875 3.89375 6.1925 4 7 C2.35 7 0.7 7 -1 7 C-1 4.37886292 -0.68707555 2.49064888 0 0 Z " fill="#AEABAA" transform="translate(486,69)"/>
<path d="M0 0 C0.99 0.33 1.98 0.66 3 1 C3 2.65 3 4.3 3 6 C0.525 5.01 0.525 5.01 -2 4 C-1.34 2.68 -0.68 1.36 0 0 Z " fill="#CCCCCC" transform="translate(125,361)"/>
<path d="M0 0 C0.98726527 2.66561622 1.0275526 3.90126985 0.25 6.6875 C-1 9 -1 9 -4 10 C-2.8905928 6.51329166 -1.73662334 3.22515763 0 0 Z " fill="#715A93" transform="translate(446,151)"/>
<path d="M0 0 C1.32 0.33 2.64 0.66 4 1 C3.67 2.65 3.34 4.3 3 6 C2.01 5.34 1.02 4.68 0 4 C0 2.68 0 1.36 0 0 Z " fill="#6A88E3" transform="translate(372,144)"/>
<path d="M0 0 C0.66 0.33 1.32 0.66 2 1 C1.67 2.65 1.34 4.3 1 6 C0.01 6 -0.98 6 -2 6 C-2.33 4.68 -2.66 3.36 -3 2 C-2.01 2 -1.02 2 0 2 C0 1.34 0 0.68 0 0 Z " fill="#A27CDC" transform="translate(422,122)"/>
<path d="M0 0 C0.99 0.33 1.98 0.66 3 1 C3 1.66 3 2.32 3 3 C0.36 3.33 -2.28 3.66 -5 4 C-2.6875 1.9375 -2.6875 1.9375 0 0 Z " fill="#474E7C" transform="translate(384,118)"/>
<path d="M0 0 C1.98 0.99 1.98 0.99 4 2 C4 4.64 4 7.28 4 10 C2.26337666 6.77484237 1.1094072 3.48670834 0 0 Z " fill="#62547F" transform="translate(444,110)"/>
<path d="M0 0 C2.15377564 2.62198774 3.40072174 4.64404172 4 8 C2.68 7.34 1.36 6.68 0 6 C0 4.02 0 2.04 0 0 Z " fill="#805E97" transform="translate(454,95)"/>
</svg>
